<svg width="17" height="14" viewBox="0 0 17 14" fill="none" xmlns="http://www.w3.org/2000/svg">
<path d="M14.2109 14C10.4025 14 6.59746 14 2.78906 14C2.76914 13.9903 2.75254 13.9773 2.73262 13.9741C2.21133 13.8769 1.88926 13.569 1.76973 13.0667C1.3082 11.119 0.856641 9.1713 0.398438 7.22361C0.268945 6.67268 0.132812 6.125 0 5.57407C0 5.45417 0 5.3375 0 5.21759C0.20918 4.49167 0.733789 4.24537 1.43105 4.26481C2.37402 4.29074 3.32031 4.26806 4.2666 4.27454C4.39941 4.27454 4.46914 4.23889 4.52227 4.1125C5.06348 2.88426 5.61797 1.6625 6.15918 0.4375C6.25547 0.226852 6.37832 0.0680555 6.60742 0C6.66387 0 6.71699 0 6.77344 0C7.1918 0.197685 7.26484 0.401852 7.07559 0.83287C6.69043 1.69167 6.30527 2.55046 5.92344 3.40926C5.79727 3.68796 5.67441 3.96991 5.54492 4.26481C7.52383 4.26481 9.48281 4.26481 11.4551 4.26481C11.4252 4.19352 11.4053 4.13519 11.3787 4.07685C10.8873 2.98148 10.3959 1.88611 9.90781 0.7875C9.87461 0.712963 9.84141 0.638426 9.83145 0.557407C9.79824 0.30463 9.91113 0.149074 10.2299 0C10.2863 0 10.3395 0 10.3959 0C10.625 0.0680555 10.7479 0.226852 10.8408 0.4375C11.382 1.66574 11.9365 2.8875 12.4777 4.1125C12.5342 4.23889 12.6006 4.27454 12.7334 4.27454C13.7627 4.26806 14.7887 4.26806 15.818 4.27454C16.3193 4.27778 16.6779 4.51111 16.8971 4.94861C16.9402 5.03287 16.9668 5.12685 17 5.21759C17 5.3375 17 5.45417 17 5.57407C16.9934 5.58704 16.9801 5.6 16.9768 5.6162C16.6414 7.04861 16.3061 8.48426 15.9707 9.91667C15.725 10.9667 15.4793 12.0167 15.2336 13.0667C15.124 13.5269 14.8352 13.825 14.367 13.9546C14.3139 13.9708 14.2641 13.9838 14.2109 14ZM4.0043 5.25648C3.96445 5.25 3.94453 5.24352 3.92129 5.24352C3.01816 5.24352 2.11836 5.24352 1.21523 5.24352C1.0293 5.24352 0.972852 5.31806 1.01602 5.50278C1.58711 7.93981 2.1582 10.3704 2.72598 12.8042C2.7625 12.9662 2.85215 13.0213 3.01816 13.0213C6.67383 13.0181 10.3328 13.0181 13.9885 13.0213C14.1545 13.0213 14.2408 12.9597 14.2773 12.8009C14.8385 10.3931 15.4062 7.98843 15.9707 5.58056C16.0371 5.28889 16.0006 5.24352 15.7018 5.24352C14.8617 5.24352 14.0184 5.24352 13.1783 5.24352C13.1252 5.24352 13.0721 5.24352 12.9957 5.24352C13.0422 5.35046 13.0787 5.43148 13.1152 5.51574C13.2248 5.78472 13.1186 6.06018 12.8629 6.17037C12.6039 6.28056 12.3316 6.17361 12.2021 5.90463C12.1191 5.72963 12.0328 5.55139 11.9664 5.36991C11.9266 5.26296 11.8668 5.23704 11.7572 5.24028C11.0998 5.24676 10.4391 5.24352 9.78164 5.24352C8.28086 5.24352 6.7834 5.24676 5.28262 5.24028C5.14316 5.24028 5.07676 5.28565 5.03027 5.40556C4.95723 5.59028 4.87754 5.775 4.78125 5.95324C4.6584 6.18657 4.38281 6.27407 4.14375 6.17037C3.90801 6.06667 3.7918 5.80417 3.88145 5.56111C3.91133 5.46389 3.95449 5.36991 4.0043 5.25648Z" fill="#214842"/>
<path d="M6.00977 9.6251C6.00977 10.1955 6.00977 10.7691 6.00977 11.3395C6.00977 11.6603 5.79727 11.8904 5.50508 11.8839C5.21953 11.8807 5.01367 11.6571 5.01367 11.3427C5.01367 10.189 5.01367 9.03529 5.01367 7.88158C5.01367 7.56399 5.21621 7.3501 5.5084 7.3501C5.80391 7.3501 6.00645 7.56399 6.00977 7.87834C6.00977 8.46167 6.00977 9.04177 6.00977 9.6251Z" fill="#214842"/>
<path d="M8.99805 9.61214C8.99805 10.1825 8.99805 10.7561 8.99805 11.3265C8.99805 11.6538 8.79883 11.8774 8.50664 11.8839C8.21113 11.8904 8.00195 11.6603 8.00195 11.3233C8.00195 10.1793 8.00195 9.03529 8.00195 7.89454C8.00195 7.56399 8.20117 7.3501 8.5 7.3501C8.79883 7.3501 8.99805 7.56723 8.99805 7.89778C8.99805 8.46816 8.99805 9.04177 8.99805 9.61214Z" fill="#214842"/>
<path d="M11.9863 9.61537C11.9863 10.1857 11.9863 10.7594 11.9863 11.3297C11.9863 11.657 11.7871 11.8806 11.4949 11.8871C11.1994 11.8904 10.9902 11.6603 10.9902 11.3265C10.9902 10.1793 10.9902 9.0288 10.9902 7.88158C10.9902 7.56075 11.2061 7.34362 11.5082 7.35334C11.7871 7.36306 11.9863 7.57371 11.9863 7.86862C11.9863 8.44871 11.9863 9.03204 11.9863 9.61537Z" fill="#214842"/>
</svg>
