<svg width="44" height="52" viewBox="0 0 44 52" fill="none" xmlns="http://www.w3.org/2000/svg">
<path d="M39.65 52C28.5242 52 17.4092 52 6.28333 52C6.25083 51.9783 6.22917 51.9458 6.19667 51.935C3.7375 51.2633 2.6 49.79 2.6 47.2442C2.6 44.915 2.68667 42.5858 2.55667 40.2675C2.275 35.0242 1.87417 29.7917 1.53833 24.5592C1.08333 17.6258 0.639167 10.7033 0.195 3.77C0.151667 3.0875 0.065 2.41583 0 1.73333C0 1.15917 0 0.574167 0 0C6.74917 0 13.5092 0 20.2583 0C20.8217 0.379167 20.8217 0.931667 20.7675 1.5275C20.5833 4.04083 20.4208 6.565 20.2583 9.08917C20.02 12.7833 19.7708 16.4667 19.5325 20.1608C19.4675 21.1467 19.4133 22.1217 19.37 22.9883C21.0492 22.88 22.6633 22.7392 24.2775 22.6742C25.9242 22.6092 27.56 22.4683 29.1308 21.9808C30.7017 21.5042 32.1858 20.8867 33.1175 19.4025C33.3558 19.0125 33.7675 18.98 34.1792 19.1642C37.2342 20.4967 39.4008 22.6417 40.365 25.8917C40.8308 27.4733 40.7333 29.1092 40.7117 30.7233C40.7008 31.265 40.7658 31.6767 41.34 31.915C41.6 32.0125 41.8058 32.2508 42.0117 32.4458C42.7267 33.1067 43.0625 33.9733 43.3117 34.8833C43.3117 39.3575 43.3117 43.8425 43.3117 48.3167C43.2683 48.4358 43.225 48.5442 43.1925 48.6633C42.835 50.0067 42.055 51.0033 40.7767 51.5883C40.43 51.7617 40.04 51.87 39.65 52ZM2.015 5.2325C2.77333 16.7917 3.52083 28.3075 4.26833 39.8342C6.91167 39.8342 9.50083 39.8342 12.1225 39.8342C12.1225 38.415 12.1117 37.0283 12.1225 35.6417C12.1333 33.9083 12.8808 32.5867 14.3975 31.7308C14.6683 31.5792 14.7333 31.4167 14.7225 31.135C14.7117 30.2467 14.7333 29.3692 14.7225 28.4808C14.7008 26.5525 15.5567 25.1225 17.1492 24.1042C17.4417 23.92 17.5717 23.725 17.5933 23.3892C17.9292 18.0808 18.2867 12.7617 18.6333 7.45333C18.6767 6.71667 18.72 5.99083 18.7742 5.22167C13.1842 5.2325 7.64833 5.2325 2.015 5.2325ZM13.91 36.4217C13.91 39.8992 13.91 43.3333 13.91 46.7567C23.1617 46.7567 32.37 46.7567 41.5783 46.7567C41.5783 43.29 41.5783 39.8667 41.5783 36.4217C32.3375 36.4217 23.14 36.4217 13.91 36.4217ZM34.2658 21.125C33.28 21.775 32.4458 22.425 31.5142 22.9233C30.1817 23.6383 28.7192 24.0067 27.2242 24.1475C25.4692 24.31 23.7033 24.3533 21.9375 24.4833C20.4533 24.5917 19.0017 24.8842 17.7667 25.7942C17.1275 26.2708 16.6942 26.8775 16.5317 27.7008C24.0283 27.7008 31.4708 27.7008 38.9133 27.7008C38.805 25.0358 36.8117 22.2842 34.2658 21.125ZM41.3617 48.555C32.2725 48.555 23.1942 48.555 14.0617 48.555C14.105 48.685 14.1267 48.7933 14.17 48.88C14.7225 49.855 15.5783 50.2667 16.6833 50.2667C24.05 50.2558 31.4058 50.2667 38.7725 50.2667C38.9133 50.2667 39.065 50.2667 39.2058 50.2558C40.235 50.1692 41.1342 49.465 41.3617 48.555ZM41.3942 34.6342C40.9717 33.5075 40.0833 32.9333 38.7833 32.9333C31.4167 32.9333 24.0608 32.9333 16.6942 32.9333C16.5533 32.9333 16.4017 32.9333 16.2608 32.9442C15.2317 33.0308 14.3433 33.7133 14.0942 34.6342C23.1833 34.6342 32.2725 34.6342 41.3942 34.6342ZM16.4883 31.1675C24.0067 31.1675 31.4817 31.1675 38.9567 31.1675C38.9567 30.5825 38.9567 30.0408 38.9567 29.4992C31.4492 29.4992 23.985 29.4992 16.4883 29.4992C16.4883 30.0517 16.4883 30.5933 16.4883 31.1675ZM1.90667 3.445C7.59417 3.445 13.2167 3.445 18.9042 3.445C18.9367 2.88167 18.9583 2.34 18.9908 1.77667C13.2383 1.77667 7.54 1.77667 1.80917 1.77667C1.84167 2.36167 1.87417 2.90333 1.90667 3.445ZM12.1117 41.6325C9.49 41.6325 6.93333 41.6325 4.36583 41.6325C4.36583 43.3658 4.36583 45.0667 4.36583 46.7567C5.24333 46.7567 6.0775 46.7567 6.9225 46.7567C6.9225 46.5183 6.9225 46.3125 6.9225 46.1175C6.93333 44.4275 8.00583 43.3442 9.685 43.3333C10.4867 43.3333 11.2883 43.3333 12.1008 43.3333C12.1117 42.8133 12.1117 42.25 12.1117 41.6325ZM4.52833 48.555C4.91833 49.5842 5.77417 50.2342 6.825 50.2558C8.82917 50.2775 10.8333 50.2558 12.8375 50.2558C12.8592 50.2558 12.8808 50.2125 12.8917 50.2125C12.6533 49.66 12.415 49.1183 12.1658 48.5658C9.6525 48.555 7.1175 48.555 4.52833 48.555ZM12.1333 46.7783C12.1333 46.54 12.1333 46.3558 12.1333 46.1825C12.1225 45.37 11.8408 45.0775 11.0283 45.0775C10.5408 45.0775 10.0533 45.0667 9.57667 45.0775C9.1 45.0883 8.775 45.3267 8.69917 45.7925C8.645 46.1175 8.68833 46.4533 8.68833 46.7892C9.85833 46.7783 10.9633 46.7783 12.1333 46.7783Z" fill="#258F67"/>
<path d="M43.3332 34.8833C43.0732 33.9733 42.7482 33.1067 42.0332 32.4458C41.8166 32.2508 41.6107 32.0125 41.3616 31.915C40.7874 31.6875 40.7224 31.2758 40.7332 30.7233C40.7549 29.0983 40.8632 27.4733 40.3866 25.8917C39.4224 22.6417 37.2557 20.4967 34.2008 19.1642C33.7891 18.98 33.3774 19.0125 33.1391 19.4025C32.2074 20.8867 30.7124 21.5042 29.1524 21.9808C27.5708 22.4575 25.9349 22.5983 24.2991 22.6742C22.6849 22.7392 21.0708 22.88 19.3916 22.9883C19.4458 22.1217 19.4999 21.1358 19.5541 20.1608C19.7924 16.4667 20.0308 12.7833 20.2799 9.08917C20.4424 6.565 20.6049 4.05167 20.7891 1.5275C20.8324 0.931667 20.8433 0.379167 20.2799 0C27.9716 0 35.6632 0 43.3549 0C43.3332 11.6242 43.3332 23.2592 43.3332 34.8833Z" fill="white"/>
<path d="M0 1.73328C0.065 2.41578 0.151667 3.08744 0.195 3.76994C0.639167 10.7033 1.08333 17.6258 1.53833 24.5591C1.87417 29.7916 2.275 35.0241 2.55667 40.2674C2.68667 42.5858 2.6 44.9149 2.6 47.2441C2.6 49.7899 3.7375 51.2633 6.19667 51.9349C6.22917 51.9458 6.25083 51.9783 6.28333 51.9999C4.1925 51.9999 2.10167 51.9999 0 51.9999C0 35.2408 0 18.4924 0 1.73328Z" fill="white"/>
<path d="M39.6499 52C40.0399 51.87 40.4299 51.7617 40.7982 51.5883C42.0657 51.0033 42.8566 50.0067 43.2141 48.6633C43.2466 48.5442 43.2899 48.4358 43.3332 48.3167C43.3332 49.5408 43.3332 50.7758 43.3332 52C42.1091 52 40.8741 52 39.6499 52Z" fill="white"/>
<path d="M2.01489 5.23254C7.6374 5.23254 13.1732 5.23254 18.7632 5.23254C18.7199 6.00171 18.6766 6.72754 18.6224 7.46421C18.2757 12.7725 17.9291 18.0917 17.5824 23.4C17.5607 23.7467 17.4307 23.9309 17.1382 24.115C15.5457 25.1334 14.6899 26.5634 14.7116 28.4917C14.7224 29.38 14.7007 30.2575 14.7116 31.1459C14.7116 31.4275 14.6466 31.59 14.3866 31.7417C12.8699 32.5975 12.1224 33.9084 12.1116 35.6525C12.1007 37.0392 12.1116 38.4259 12.1116 39.845C9.47906 39.845 6.90073 39.845 4.25739 39.845C3.52073 28.3075 2.77323 16.7917 2.01489 5.23254ZM10.3999 13.8667C12.0574 13.8667 13.7257 13.8667 15.3832 13.8667C16.1632 13.8667 16.4666 13.5634 16.4666 12.7834C16.4666 11.1909 16.4666 9.60921 16.4666 8.01671C16.4666 7.23671 16.1632 6.93338 15.3832 6.93338C12.0574 6.93338 8.7424 6.93338 5.41656 6.93338C4.63656 6.93338 4.33323 7.23671 4.33323 8.01671C4.33323 9.60921 4.33323 11.1909 4.33323 12.7834C4.33323 13.5634 4.63656 13.8667 5.41656 13.8667C7.07406 13.8667 8.7424 13.8667 10.3999 13.8667ZM10.3999 15.6C9.2949 15.6 8.20073 15.6 7.09573 15.6C6.45656 15.6 6.06656 15.9359 6.06656 16.4667C6.06656 16.9975 6.45656 17.3334 7.09573 17.3334C9.2949 17.3334 11.5049 17.3334 13.7041 17.3334C14.3432 17.3334 14.7332 16.9975 14.7332 16.4667C14.7332 15.9467 14.3432 15.6109 13.7041 15.6C12.5991 15.6 11.5049 15.6 10.3999 15.6Z" fill="white"/>
<path d="M13.9099 36.4216C23.1507 36.4216 32.3482 36.4216 41.5782 36.4216C41.5782 39.8666 41.5782 43.29 41.5782 46.7566C32.3807 46.7566 23.1616 46.7566 13.9099 46.7566C13.9099 43.3333 13.9099 39.8991 13.9099 36.4216ZM28.1774 45.0775C28.6324 45.0233 29.5207 44.98 30.3874 44.8175C31.6007 44.59 32.7707 44.2325 33.7349 43.3983C34.9699 42.3475 34.9916 40.8416 33.7457 39.8125C33.2799 39.4333 32.7274 39.1083 32.1641 38.8916C29.6182 37.9383 27.0182 37.9058 24.3966 38.5341C23.3999 38.7725 22.4682 39.1408 21.6882 39.8233C20.5182 40.8416 20.4966 42.3366 21.6882 43.3333C22.1649 43.7341 22.7391 44.0483 23.3024 44.2866C24.7216 44.8933 26.2274 45.0558 28.1774 45.0775Z" fill="white"/>
<path d="M34.2659 21.125C36.8117 22.2842 38.8051 25.0358 38.9134 27.7008C31.4709 27.7008 24.0284 27.7008 16.5317 27.7008C16.6834 26.8775 17.1167 26.26 17.7667 25.7942C19.0017 24.8842 20.4534 24.6025 21.9376 24.4833C23.7034 24.3533 25.4692 24.31 27.2242 24.1475C28.7192 24.0067 30.1817 23.6383 31.5142 22.9233C32.4459 22.425 33.2909 21.775 34.2659 21.125Z" fill="white"/>
<path d="M41.3618 48.555C41.1343 49.465 40.2351 50.1584 39.2059 50.245C39.0651 50.2559 38.9134 50.2559 38.7726 50.2559C31.4059 50.2559 24.0501 50.2559 16.6834 50.2559C15.5784 50.2559 14.7334 49.8334 14.1701 48.8692C14.1159 48.7825 14.1051 48.6742 14.0618 48.5442C23.1943 48.555 32.2726 48.555 41.3618 48.555Z" fill="white"/>
<path d="M41.3942 34.6342C32.2726 34.6342 23.1834 34.6342 14.0942 34.6342C14.3434 33.7134 15.2317 33.02 16.2609 32.9442C16.4017 32.9334 16.5534 32.9333 16.6942 32.9333C24.0609 32.9333 31.4167 32.9333 38.7834 32.9333C40.0834 32.9333 40.9717 33.5075 41.3942 34.6342Z" fill="white"/>
<path d="M16.4883 31.1675C16.4883 30.5933 16.4883 30.0625 16.4883 29.4991C23.9741 29.4991 31.4491 29.4991 38.9566 29.4991C38.9566 30.0408 38.9566 30.5825 38.9566 31.1675C31.4924 31.1675 24.0066 31.1675 16.4883 31.1675Z" fill="white"/>
<path d="M1.90658 3.44494C1.87408 2.89244 1.84158 2.36161 1.80908 1.77661C7.53992 1.77661 13.2383 1.77661 18.9908 1.77661C18.9583 2.33994 18.9366 2.88161 18.9041 3.44494C13.2058 3.44494 7.58325 3.44494 1.90658 3.44494Z" fill="white"/>
<path d="M12.1117 41.6324C12.1117 42.2391 12.1117 42.8133 12.1117 43.3333C11.2884 43.3333 10.4975 43.3333 9.69588 43.3333C8.01671 43.3441 6.94421 44.4274 6.93338 46.1174C6.93338 46.3124 6.93338 46.5183 6.93338 46.7566C6.07754 46.7566 5.24338 46.7566 4.37671 46.7566C4.37671 45.0774 4.37671 43.3766 4.37671 41.6324C6.93338 41.6324 9.50088 41.6324 12.1117 41.6324Z" fill="white"/>
<path d="M4.52832 48.5551C7.11749 48.5551 9.65249 48.5551 12.155 48.5551C12.4042 49.1184 12.6425 49.6492 12.8808 50.2017C12.87 50.2126 12.8483 50.2451 12.8267 50.2451C10.8225 50.2451 8.81832 50.2667 6.81415 50.2451C5.78499 50.2451 4.92915 49.5842 4.52832 48.5551Z" fill="white"/>
<path d="M12.1334 46.7784C10.9634 46.7784 9.85838 46.7784 8.67754 46.7784C8.67754 46.4534 8.63421 46.1067 8.68838 45.7817C8.76421 45.3159 9.08921 45.0776 9.56588 45.0667C10.0534 45.0559 10.5409 45.0559 11.0175 45.0667C11.83 45.0667 12.1117 45.3701 12.1225 46.1717C12.1334 46.3559 12.1334 46.54 12.1334 46.7784Z" fill="white"/>
<path d="M10.3999 13.8667C8.74242 13.8667 7.07408 13.8667 5.41659 13.8667C4.63659 13.8667 4.33325 13.5634 4.33325 12.7833C4.33325 11.1908 4.33325 9.60918 4.33325 8.01668C4.33325 7.23668 4.63659 6.93335 5.41659 6.93335C8.74242 6.93335 12.0574 6.93335 15.3833 6.93335C16.1632 6.93335 16.4666 7.23668 16.4666 8.01668C16.4666 9.60918 16.4666 11.1908 16.4666 12.7833C16.4666 13.5634 16.1632 13.8667 15.3833 13.8667C13.7257 13.8667 12.0574 13.8667 10.3999 13.8667ZM6.08825 12.1008C8.98075 12.1008 11.8408 12.1008 14.6899 12.1008C14.6899 10.9417 14.6899 9.81502 14.6899 8.69918C11.8083 8.69918 8.95908 8.69918 6.08825 8.69918C6.08825 9.83668 6.08825 10.9417 6.08825 12.1008Z" fill="#258F67"/>
<path d="M10.4 15.6C11.505 15.6 12.5991 15.6 13.7041 15.6C14.3433 15.6 14.7333 15.9358 14.7333 16.4666C14.7333 16.9866 14.3433 17.3333 13.7041 17.3333C11.505 17.3333 9.29498 17.3333 7.09582 17.3333C6.45665 17.3333 6.06665 16.9975 6.06665 16.4666C6.06665 15.9358 6.44582 15.6108 7.09582 15.6C8.20082 15.6 9.29498 15.6 10.4 15.6Z" fill="#258F67"/>
<path d="M28.1775 45.0775C26.2275 45.0559 24.7217 44.8934 23.3025 44.2975C22.7284 44.0592 22.1542 43.745 21.6884 43.3442C20.4967 42.3475 20.5184 40.8525 21.6884 39.8342C22.4684 39.1517 23.4109 38.7834 24.3967 38.545C27.0184 37.9167 29.6184 37.9492 32.1642 38.9025C32.7275 39.1084 33.28 39.4334 33.7459 39.8234C34.9917 40.8525 34.97 42.3584 33.735 43.4092C32.7709 44.2325 31.6009 44.6009 30.3875 44.8284C29.5209 44.98 28.6325 45.0234 28.1775 45.0775ZM27.7442 39.8667C26.3359 39.8884 24.9384 40.0184 23.6492 40.6467C23.2267 40.8525 22.6634 41.2317 22.5984 41.6C22.5117 42.12 23.1617 42.38 23.6275 42.5534C26.3684 43.6259 29.1092 43.6259 31.85 42.5534C32.305 42.3692 32.955 42.1309 32.8684 41.5892C32.8142 41.2317 32.2725 40.8634 31.8609 40.6575C30.5717 40.0292 29.1742 39.8884 27.7442 39.8667Z" fill="#258F67"/>
<path d="M6.08838 12.1009C6.08838 10.9526 6.08838 9.83672 6.08838 8.69922C8.95921 8.69922 11.7976 8.69922 14.6901 8.69922C14.6901 9.81505 14.6901 10.9417 14.6901 12.1009C11.8409 12.1009 8.99171 12.1009 6.08838 12.1009Z" fill="white"/>
<path d="M27.7441 39.8667C29.1741 39.8884 30.5716 40.04 31.8608 40.6684C32.2725 40.8634 32.8141 41.2425 32.8683 41.6C32.955 42.1417 32.305 42.38 31.85 42.5642C29.12 43.6367 26.3683 43.6367 23.6275 42.5642C23.1725 42.38 22.5116 42.1309 22.5983 41.6109C22.6633 41.2425 23.2266 40.8634 23.6491 40.6575C24.9383 40.0184 26.3358 39.8775 27.7441 39.8667Z" fill="white"/>
</svg>
