<svg width="51" height="51" viewBox="0 0 51 51" fill="none" xmlns="http://www.w3.org/2000/svg">
<path d="M34.0306 9.80475C31.8223 7.04906 29.5384 4.19983 27.6624 1.1985C27.1966 0.453023 26.3789 0 25.5 0C24.6211 0 23.8034 0.453023 23.3376 1.1985C21.4616 4.20073 19.1777 7.04985 16.9694 9.80475C11.7606 16.3039 6.375 23.0239 6.375 31.875C6.375 42.4201 14.9549 51 25.5 51C36.0451 51 44.625 42.4201 44.625 31.875C44.625 23.0239 39.2394 16.3039 34.0306 9.80475ZM25.5 48.45C16.3455 48.45 8.925 41.0295 8.925 31.875C8.925 20.4 19.125 12.75 25.5 2.55C31.875 12.75 42.075 20.4 42.075 31.875C42.075 41.0295 34.6545 48.45 25.5 48.45Z" fill="#258F67"/>
<path d="M38.2501 30.8354C37.5455 30.8354 36.9751 31.4058 36.9751 32.1105C36.9751 38.4378 31.8275 43.5854 25.5001 43.5854C24.7955 43.5854 24.2251 44.1558 24.2251 44.8604C24.2251 45.5651 24.7955 46.1354 25.5001 46.1354C33.2326 46.1354 39.5251 39.8429 39.5251 32.1105C39.5251 31.4058 38.9547 30.8354 38.2501 30.8354Z" fill="#258F67"/>
</svg>
