<svg width="56" height="56" viewBox="0 0 56 56" fill="none" xmlns="http://www.w3.org/2000/svg">
<path d="M55.2344 5.03125C55.2344 22.0172 55.2344 39.0141 55.2344 56C53.0469 56 50.8594 56 48.6719 56C49.5469 55.6719 50.1594 55.1031 50.1375 54.1187C50.1156 53.1453 50.0937 52.1391 49.8641 51.1984C49.1531 48.1906 46.9875 46.4516 44.3625 45.15C43.9359 44.9422 43.5531 45.1281 43.3562 45.5328C43.1594 45.9375 43.2469 46.3312 43.6516 46.5828C44.0234 46.8234 44.4172 47.0094 44.7891 47.2391C47.1734 48.6828 48.5734 50.7062 48.5187 53.5938C48.5078 54.3703 48.5187 54.3703 47.7312 54.3703C34.3547 54.3703 20.9672 54.3703 7.59063 54.3703C7.50313 54.3703 7.40469 54.3594 7.31719 54.3703C6.96719 54.4031 6.82501 54.2609 6.81407 53.9109C6.73751 51.7344 7.39376 49.8641 9.03438 48.3766C10.1063 47.4141 11.3203 46.6484 12.6547 46.1781C15.0172 45.3469 17.4234 44.6141 19.8188 43.8594C21.0875 43.4547 21.6453 42.7547 21.6453 41.4203C21.6453 40.075 21.6453 38.7188 21.6453 37.3734C21.6453 37.1438 21.6891 36.9141 21.7328 36.5531C25.7031 38.8391 29.6187 38.8391 33.5891 36.5641C33.6328 36.9031 33.6766 37.1219 33.6766 37.3516C33.6875 38.7734 33.6656 40.1953 33.6875 41.6172C33.6984 42.5797 34.1031 43.3562 35.0328 43.6734C36.7719 44.2531 38.5437 44.7562 40.3156 45.2594C40.7531 45.3797 41.1031 45.15 41.2562 44.7125C41.3984 44.2859 41.2344 43.9578 40.8516 43.75C40.6984 43.6625 40.5125 43.6187 40.3375 43.5641C38.85 43.1266 37.3625 42.7 35.8969 42.2406C35.6672 42.1641 35.3719 41.8797 35.3609 41.6828C35.3062 40.6656 35.3391 39.6484 35.3391 38.7953C35.9516 38.5438 36.5203 38.4125 36.9578 38.0953C40.2609 35.7 43.5531 33.2938 46.8344 30.8547C48.7922 29.4 50.1047 27.475 50.6516 25.1016C51.8328 19.9609 52.9812 14.8094 54.1516 9.65781C54.4906 8.10469 54.8734 6.57344 55.2344 5.03125Z" fill="white"/>
<path d="M55.2344 5.03125C54.8735 6.57344 54.4906 8.10469 54.1406 9.64687C52.9703 14.7984 51.8328 19.95 50.6406 25.0906C50.0938 27.475 48.7813 29.3891 46.8235 30.8437C43.5422 33.2719 40.25 35.6891 36.9469 38.0844C36.5094 38.4016 35.9406 38.5219 35.3281 38.7844C35.3281 39.6375 35.2953 40.6547 35.35 41.6719C35.361 41.8687 35.6672 42.1641 35.886 42.2297C37.3625 42.7 38.85 43.1156 40.3266 43.5531C40.5016 43.6078 40.6766 43.6516 40.8406 43.7391C41.2235 43.9469 41.3875 44.275 41.2453 44.7016C41.0922 45.15 40.7531 45.3687 40.3047 45.2484C38.5328 44.7453 36.7719 44.2422 35.0219 43.6625C34.0922 43.3562 33.6875 42.5687 33.6766 41.6062C33.6656 40.1844 33.6766 38.7625 33.6656 37.3406C33.6656 37.1219 33.611 36.8922 33.5781 36.5531C29.6078 38.8281 25.6922 38.8172 21.7219 36.5422C21.6781 36.9031 21.6344 37.1328 21.6344 37.3625C21.6235 38.7078 21.6344 40.0641 21.6344 41.4094C21.6344 42.7437 21.0766 43.4547 19.8078 43.8484C17.4125 44.6031 15.0172 45.3359 12.6438 46.1672C11.2985 46.6375 10.0844 47.3922 9.02346 48.3656C7.38283 49.8531 6.72658 51.7234 6.80315 53.9C6.81409 54.2609 6.95627 54.4031 7.30627 54.3594C7.39377 54.3484 7.49221 54.3594 7.57971 54.3594C20.9563 54.3594 34.3438 54.3594 47.7203 54.3594C48.5078 54.3594 48.4969 54.3594 48.5078 53.5828C48.5625 50.6953 47.1625 48.6719 44.7781 47.2281C44.4063 46.9984 44.0125 46.8125 43.6406 46.5719C43.2469 46.3203 43.1485 45.9266 43.3453 45.5219C43.5422 45.1172 43.925 44.9203 44.3516 45.1391C46.9656 46.4406 49.1313 48.1906 49.8531 51.1875C50.0828 52.1281 50.1047 53.1344 50.1266 54.1078C50.1485 55.0922 49.536 55.6609 48.661 55.9891C34.661 55.9891 20.661 55.9891 6.66096 55.9891C5.80784 55.6719 5.22815 55.125 5.1844 54.1625C5.02034 51.2094 5.98284 48.7266 8.29065 46.8125C9.97502 45.4234 11.9328 44.5484 13.9781 43.8703C15.7172 43.2906 17.5 42.8094 19.261 42.2844C19.611 42.175 19.9938 42.0875 19.9938 41.6062C19.9938 40.6109 19.9938 39.6047 19.9938 38.5547C19.2063 38.6422 18.6375 38.2812 18.0688 37.8656C14.9188 35.5359 11.7578 33.2281 8.5969 30.9094C6.55158 29.4 5.20627 27.4203 4.63752 24.9375C3.13909 18.3094 1.65159 11.6703 0.164086 5.03125C-0.032789 4.13437 0.426586 3.45625 1.35627 3.28125C3.5219 2.8875 5.68752 2.49375 7.86408 2.1C8.89221 1.91406 9.50471 2.34062 9.70158 3.37969C10.0188 5.09687 10.3141 6.825 10.6203 8.54219C10.7078 9.06719 10.8063 9.58125 10.9047 10.0953C10.9922 10.5984 11.0906 11.0906 11.2 11.7359C11.3094 11.4734 11.3531 11.3531 11.3969 11.2437C12.3813 8.70625 13.8578 6.49687 15.8485 4.6375C16.5047 4.025 16.9641 3.9375 17.3469 4.35312C17.7516 4.77969 17.6531 5.20625 16.986 5.81875C14.8203 7.84219 13.3219 10.2812 12.5125 13.1359C12.4469 13.3656 12.3922 13.6828 12.5016 13.8469C13.0922 14.7328 13.7375 15.5859 14.3938 16.4937C15.0281 15.1922 15.9141 14.1859 16.9531 13.3C17.85 12.5344 18.7797 11.7906 19.7641 11.1234C24.3141 8.05 29.2578 5.75312 34.3766 3.80625C34.5953 3.71875 34.8141 3.63125 35.1203 3.5C32.9547 2.35156 30.7344 1.75 28.3938 1.64062C25.6485 1.52031 23.0344 2.07812 20.5735 3.31406C19.9172 3.64219 19.4469 3.53281 19.2172 3.02969C18.9985 2.55937 19.1953 2.13281 19.8516 1.84844C20.8688 1.41094 21.8969 0.9625 22.9578 0.65625C24.0188 0.360937 25.1453 0.21875 26.25 0C27.2016 0 28.1422 0 29.0938 0C29.2141 0.0328125 29.3344 0.0765625 29.4547 0.0984375C35.5797 0.853125 40.1078 3.95937 43.0719 9.34062C43.4766 10.0625 43.7719 10.85 44.1438 11.6703C44.1985 11.4297 44.2422 11.2437 44.275 11.0578C44.7235 8.53125 45.1719 6.00469 45.6203 3.47812C45.8172 2.38437 46.4188 1.925 47.4469 2.11094C49.525 2.47187 51.6031 2.87656 53.6813 3.22656C54.3813 3.34687 54.9063 3.63125 55.2125 4.2875C55.2344 4.51719 55.2344 4.77969 55.2344 5.03125ZM27.7594 10.1719C27.5406 10.1719 27.3219 10.1828 27.1031 10.1719C25.5063 10.0844 24.0078 10.2375 22.5969 11.2109C20.661 12.5453 18.6485 13.7594 17.0406 15.5094C16.4281 16.1766 15.8922 16.8875 15.75 17.8062C15.7172 18.0469 15.7828 18.3203 15.8813 18.5391C16.0891 18.9984 16.4938 19.3922 16.5922 19.8625C16.9641 21.6453 17.2594 23.4391 17.5656 25.2328C17.7188 26.0969 17.511 26.8844 16.9094 27.5078C16.5047 27.9344 16.5594 28.2187 16.9422 28.6016C18.2 29.8703 19.436 31.15 20.6938 32.4187C21.2844 33.0203 21.6891 33.7094 21.886 34.5297C21.9188 34.6719 22.0063 34.8578 22.1156 34.9234C23.7235 35.7875 25.3969 36.5203 27.2563 36.6297C29.4328 36.7609 31.3469 35.9078 33.2172 34.9344C33.3375 34.8687 33.436 34.6937 33.4688 34.5516C33.6547 33.7094 34.0813 33.0094 34.6828 32.3969C35.9516 31.1172 37.2094 29.8156 38.4672 28.5359C38.7844 28.2078 38.85 27.9344 38.4891 27.5625C37.8547 26.8844 37.625 26.0641 37.8 25.1453C38.0188 23.9859 38.2047 22.8156 38.4235 21.6562C38.6422 20.5078 38.675 19.2937 39.5828 18.375C39.6813 18.2766 39.6594 17.9922 39.6156 17.8281C38.6203 14.1969 36.3235 11.7906 32.7469 10.6094C31.1172 10.0734 29.4328 10.1719 27.7594 10.1719ZM47.2938 3.74062C47.25 3.91562 47.1844 4.06875 47.1625 4.23281C46.6813 6.92344 46.211 9.61406 45.7078 12.2937C45.6422 12.6328 45.5 12.9937 45.3031 13.2781C43.7719 15.4328 42.2078 17.5547 40.6766 19.7094C40.4797 19.9828 40.3375 20.3109 40.2828 20.6391C39.9766 22.2141 39.7141 23.7891 39.4297 25.3641C39.2985 26.075 39.6485 26.6656 40.2719 26.7969C40.95 26.9281 41.4969 26.5453 41.65 25.8016C41.7485 25.3203 41.825 24.8391 41.9016 24.3469C42.1313 23.0781 42.35 21.7984 42.5797 20.5297C42.6672 20.0594 42.8531 19.6875 43.4 19.6656C43.9797 19.6437 44.3188 20.0594 44.1985 20.7484C43.9031 22.5203 43.586 24.3031 43.2469 26.075C42.9735 27.5187 42.1203 28.2734 40.6656 28.4703C40.5235 28.4922 40.3703 28.6234 40.2828 28.7437C40.0969 28.9953 39.9875 29.3234 39.7688 29.5531C38.4563 30.9203 37.1219 32.2656 35.7985 33.6219C34.9672 34.475 34.8031 35.5578 35.3063 36.5312C35.5141 36.925 35.6891 37.0234 36.0938 36.7281C39.3422 34.3219 42.6125 31.9484 45.861 29.5422C47.5672 28.2844 48.65 26.5891 49.1203 24.5219C50.4766 18.5281 51.8219 12.5234 53.1781 6.51875C53.2985 5.98281 53.4188 5.43594 53.5391 4.86719C51.3953 4.47344 49.361 4.1125 47.2938 3.74062ZM1.84846 4.85625C1.87034 5.03125 1.88127 5.17344 1.90315 5.31562C3.3469 11.725 4.79065 18.1344 6.2344 24.5328C6.69377 26.5453 7.73283 28.2078 9.3844 29.4437C12.6766 31.8937 15.9906 34.3 19.2828 36.7391C19.6656 37.0234 19.8406 36.9031 20.0266 36.5422C20.5406 35.5797 20.3875 34.4859 19.5563 33.6328C18.211 32.2437 16.8547 30.8766 15.5094 29.4875C15.3344 29.3125 15.1594 29.0937 15.1047 28.8641C15.0281 28.5469 14.875 28.4703 14.5797 28.4484C13.3219 28.3391 12.3703 27.4859 12.1188 26.25C11.9219 25.2547 11.7469 24.2484 11.5719 23.2422C11.4188 22.3672 11.2438 21.4922 11.1125 20.6062C11.036 20.1141 11.3203 19.7531 11.7469 19.6766C12.2063 19.6 12.5453 19.8297 12.6875 20.3C12.7313 20.4422 12.7531 20.5844 12.775 20.7266C13.0703 22.3891 13.3656 24.0625 13.6719 25.725C13.8141 26.5125 14.35 26.9172 15.0391 26.7969C15.6735 26.6875 16.0235 26.0859 15.8922 25.3312C15.6078 23.7672 15.3563 22.2141 15.05 20.6609C14.9844 20.3219 14.8313 19.9609 14.6344 19.6766C13.1031 17.5219 11.5391 15.4 9.9969 13.2453C9.8219 13.0047 9.67971 12.7094 9.62502 12.4141C9.23127 10.3031 8.87033 8.18125 8.48752 6.07031C8.34533 5.29375 8.19221 4.51719 8.05002 3.72969C5.95002 4.1125 3.91565 4.48437 1.84846 4.85625ZM40.9938 16.45C41.5953 15.6187 42.1969 14.8312 42.7438 14.0219C42.875 13.8359 42.9297 13.5078 42.875 13.2891C41.9453 9.87656 40.075 7.06562 37.2641 4.91094C37.0891 4.77969 36.75 4.725 36.5422 4.80156C34.5188 5.56719 32.5063 6.35469 30.4938 7.175C29.575 7.54687 28.6891 7.99531 27.7922 8.41094C27.7922 8.45469 27.7813 8.49844 27.7813 8.54219C33.9938 8.14844 38.5 10.5766 40.9938 16.45Z" fill="#258F67"/>
<path d="M26.25 0C25.1453 0.21875 24.0187 0.360937 22.9469 0.678125C21.8859 0.984375 20.8687 1.43281 19.8406 1.87031C19.1844 2.15469 18.9875 2.58125 19.2062 3.05156C19.4359 3.55469 19.9062 3.66406 20.5625 3.33594C23.0234 2.1 25.6266 1.53125 28.3828 1.6625C30.7234 1.77188 32.9328 2.3625 35.1094 3.52188C34.8031 3.64219 34.5844 3.74062 34.3656 3.82812C29.2469 5.775 24.3031 8.07188 19.7531 11.1453C18.7797 11.8016 17.85 12.5563 16.9422 13.3219C15.9141 14.1969 15.0281 15.2141 14.3828 16.5156C13.7266 15.6078 13.0812 14.7547 12.4906 13.8688C12.3812 13.7047 12.4359 13.3875 12.5016 13.1578C13.3219 10.3031 14.8094 7.86406 16.975 5.84063C17.6422 5.21719 17.7516 4.80156 17.3359 4.375C16.9422 3.97031 16.4828 4.05781 15.8375 4.65937C13.8469 6.51875 12.3703 8.72812 11.3859 11.2656C11.3422 11.3859 11.2875 11.4953 11.1891 11.7578C11.0687 11.1125 10.9812 10.6203 10.8937 10.1172C10.7953 9.60312 10.6969 9.07812 10.6094 8.56406C10.3031 6.84688 10.0078 5.11875 9.69062 3.40156C9.49375 2.3625 8.88125 1.93594 7.85312 2.12188C5.6875 2.49375 3.51094 2.87656 1.34531 3.28125C0.426563 3.44531 -0.04375 4.13438 0.164062 5.03125C1.65156 11.6703 3.13906 18.3203 4.65937 24.9484C5.22812 27.4313 6.57344 29.4109 8.61875 30.9203C11.7687 33.2391 14.9406 35.5469 18.0906 37.8766C18.6594 38.2922 19.2281 38.6531 20.0156 38.5656C20.0156 39.6156 20.0156 40.6109 20.0156 41.6172C20.0156 42.0984 19.6328 42.1859 19.2828 42.2953C17.5219 42.8203 15.75 43.3016 14 43.8813C11.9547 44.5594 9.99687 45.4344 8.3125 46.8234C5.99375 48.7375 5.04219 51.2094 5.20625 54.1734C5.26094 55.1359 5.84062 55.6828 6.68281 56C4.4625 56 2.23125 56 0.0109375 56C0 37.3297 0 18.6703 0 0C8.75 0 17.5 0 26.25 0Z" fill="white"/>
<path d="M55.2344 4.26562C54.9281 3.62031 54.4031 3.325 53.7031 3.20469C51.625 2.85469 49.5469 2.46094 47.4687 2.08906C46.4297 1.90312 45.8281 2.3625 45.6422 3.45625C45.1937 5.98281 44.7453 8.50937 44.2969 11.0359C44.2641 11.2219 44.2203 11.4078 44.1656 11.6484C43.7937 10.8281 43.4875 10.0516 43.0937 9.31875C40.0969 3.95937 35.5687 0.853125 29.4547 0.0984375C29.3344 0.0875 29.2141 0.0328125 29.0938 0C37.8109 0 46.5172 0 55.2344 0C55.2344 1.42187 55.2344 2.84375 55.2344 4.26562Z" fill="white"/>
<path d="M27.7593 10.1718C29.4327 10.1718 31.1171 10.0734 32.7468 10.6093C36.3233 11.7906 38.6202 14.1859 39.6155 17.8281C39.6593 18.0031 39.6811 18.2765 39.5827 18.3749C38.6749 19.2937 38.6421 20.5078 38.4233 21.6562C38.2046 22.8156 38.0186 23.9859 37.7999 25.1453C37.6249 26.0749 37.8546 26.8953 38.489 27.5624C38.839 27.9343 38.7843 28.2078 38.4671 28.5359C37.1983 29.8156 35.9515 31.1171 34.6827 32.3968C34.0811 33.0093 33.6546 33.7093 33.4686 34.5515C33.4358 34.6937 33.3374 34.8687 33.2171 34.9343C31.3468 35.8968 29.4327 36.7609 27.2561 36.6296C25.4077 36.5203 23.7343 35.7874 22.1155 34.9234C21.9952 34.8578 21.9187 34.6828 21.8858 34.5296C21.689 33.7093 21.2843 33.0203 20.6937 32.4187C19.4358 31.1499 18.1999 29.8593 16.9421 28.6015C16.5593 28.2187 16.5046 27.9343 16.9093 27.5078C17.4999 26.8843 17.7077 26.0859 17.5655 25.2328C17.2483 23.439 16.964 21.6453 16.5921 19.8624C16.4937 19.3921 16.0999 18.9874 15.8812 18.539C15.7827 18.3203 15.7062 18.0359 15.7499 17.8062C15.8921 16.8874 16.439 16.1765 17.0405 15.5093C18.6483 13.7593 20.6608 12.5453 22.5968 11.2109C24.0077 10.2374 25.5061 10.0843 27.103 10.1718C27.3218 10.1828 27.5405 10.1718 27.7593 10.1718ZM27.6608 31.4453C28.7108 31.1937 29.7499 30.9749 30.778 30.6796C31.3468 30.5156 31.5436 30.0343 31.3686 29.5749C31.2046 29.1265 30.7343 28.9515 30.1765 29.1703C28.503 29.8156 26.8515 29.8156 25.178 29.1703C24.6093 28.9515 24.1608 29.1156 23.9858 29.564C23.7999 30.0453 24.0077 30.5156 24.6202 30.6906C25.5936 30.9859 26.5999 31.1937 27.6608 31.4453ZM23.8765 21.2406C23.7999 21.1421 23.6905 20.8796 23.4827 20.7374C22.3999 19.9281 20.5733 19.939 19.4687 20.7265C19.0858 20.9999 18.9546 21.4484 19.1843 21.8203C19.4249 22.2249 19.8296 22.3671 20.2124 22.1593C21.0765 21.6781 21.8749 21.689 22.739 22.1484C23.2968 22.4437 23.8874 22.0062 23.8765 21.2406ZM33.8624 19.9828C33.1952 20.2234 32.5499 20.4093 31.9483 20.6828C31.4671 20.9015 31.3358 21.4156 31.5655 21.8312C31.7843 22.2249 32.2436 22.3671 32.703 22.1156C33.4905 21.6781 34.2452 21.6781 35.0327 22.1156C35.4921 22.3671 35.9515 22.2249 36.1702 21.8203C36.3999 21.4156 36.2686 20.9015 35.7765 20.6828C35.164 20.3984 34.5296 20.2234 33.8624 19.9828Z" fill="white"/>
<path d="M47.2937 3.7406C49.3609 4.11248 51.3953 4.47341 53.5281 4.85623C53.4078 5.42498 53.2875 5.96091 53.1672 6.50779C51.8109 12.5015 50.4656 18.5062 49.1094 24.5C48.639 26.5672 47.5562 28.2625 45.85 29.5203C42.6015 31.9265 39.3312 34.3 36.0828 36.7062C35.6781 37.0015 35.5031 36.9031 35.2953 36.5093C34.7922 35.5468 34.9562 34.4531 35.7875 33.6C37.1109 32.2437 38.4453 30.8984 39.7578 29.5312C39.9765 29.3015 40.0859 28.9843 40.2719 28.7218C40.3594 28.6015 40.5125 28.4703 40.6547 28.4484C42.1094 28.2515 42.9625 27.4968 43.2359 26.0531C43.575 24.2812 43.8812 22.5093 44.1875 20.7265C44.2969 20.0484 43.9578 19.6218 43.389 19.6437C42.8422 19.6656 42.6562 20.0375 42.5687 20.5078C42.339 21.7765 42.1203 23.0562 41.8906 24.325C41.8031 24.8062 41.7375 25.2984 41.639 25.7797C41.4859 26.5234 40.939 26.9062 40.2609 26.775C39.6375 26.6547 39.2984 26.0531 39.4187 25.3422C39.7031 23.7672 39.9656 22.1812 40.2719 20.6172C40.3375 20.289 40.4797 19.95 40.6656 19.6875C42.1969 17.5328 43.7609 15.4109 45.2922 13.2562C45.489 12.9718 45.6422 12.6109 45.6969 12.2718C46.2 9.59216 46.6703 6.90154 47.1515 4.21091C47.1953 4.06873 47.25 3.9156 47.2937 3.7406Z" fill="white"/>
<path d="M1.84839 4.85623C3.91558 4.48435 5.96089 4.12341 8.07183 3.7406C8.22495 4.5281 8.36714 5.30466 8.50933 6.08122C8.89214 8.19216 9.25308 10.314 9.64683 12.425C9.70151 12.7203 9.8437 13.0156 10.0187 13.2562C11.5609 15.4 13.114 17.5328 14.6562 19.6875C14.864 19.9718 15.0062 20.3218 15.0718 20.6718C15.3781 22.225 15.6296 23.789 15.914 25.3422C16.0453 26.0968 15.7062 26.6984 15.0609 26.8078C14.3609 26.9281 13.8359 26.5234 13.6937 25.7359C13.3875 24.0734 13.1031 22.4 12.7968 20.7375C12.775 20.5953 12.7531 20.4531 12.7093 20.3109C12.5671 19.8297 12.2281 19.6109 11.7687 19.6875C11.3312 19.764 11.0578 20.114 11.1343 20.6172C11.2656 21.5031 11.4296 22.3781 11.5937 23.2531C11.7687 24.2593 11.9437 25.2656 12.1406 26.2609C12.3921 27.4968 13.3437 28.35 14.6015 28.4593C14.8968 28.4812 15.05 28.5578 15.1265 28.875C15.1812 29.1047 15.3562 29.3234 15.5312 29.4984C16.8765 30.8875 18.2328 32.2547 19.5781 33.6437C20.4093 34.4968 20.5625 35.5906 20.0484 36.5531C19.8625 36.9031 19.6875 37.0343 19.3046 36.75C16.0125 34.3109 12.6984 31.9047 9.4062 29.4547C7.75464 28.2187 6.71558 26.5562 6.2562 24.5437C4.79058 18.1343 3.34683 11.725 1.90308 5.3156C1.87026 5.17341 1.87026 5.03123 1.84839 4.85623Z" fill="white"/>
<path d="M40.9937 16.45C38.4999 10.5765 33.9937 8.1484 27.7703 8.55309C27.7703 8.50934 27.7812 8.46559 27.7812 8.42184C28.6781 8.00621 29.564 7.55777 30.4828 7.1859C32.4953 6.36559 34.5078 5.57809 36.5312 4.81246C36.7281 4.7359 37.0781 4.79059 37.2531 4.92184C40.064 7.07652 41.9343 9.87652 42.864 13.3C42.9187 13.5187 42.864 13.8359 42.7328 14.0328C42.1859 14.8422 41.5953 15.6187 40.9937 16.45Z" fill="white"/>
<path d="M27.6609 31.4453C26.6 31.1937 25.5937 30.9859 24.6094 30.6906C24.0078 30.5156 23.789 30.0343 23.975 29.564C24.15 29.1156 24.6094 28.9515 25.1672 29.1703C26.8406 29.8156 28.5031 29.8156 30.1656 29.1703C30.7234 28.9515 31.1828 29.1265 31.3578 29.575C31.5328 30.0453 31.325 30.5156 30.7672 30.6797C29.75 30.975 28.7109 31.1937 27.6609 31.4453Z" fill="#258F67"/>
<path d="M23.8765 21.2406C23.8984 22.0062 23.2968 22.4437 22.7499 22.1484C21.8859 21.6781 21.0874 21.6672 20.2234 22.1593C19.8405 22.3781 19.4359 22.2359 19.1952 21.8203C18.9765 21.4484 19.0968 21 19.4796 20.7265C20.5734 19.939 22.3999 19.9281 23.4937 20.7375C23.6796 20.8797 23.7999 21.1422 23.8765 21.2406Z" fill="#258F67"/>
<path d="M33.8624 19.9828C34.5296 20.2234 35.1749 20.3984 35.7765 20.6828C36.2687 20.9125 36.3999 21.4156 36.1702 21.8203C35.9515 22.214 35.4921 22.3672 35.0327 22.1156C34.2452 21.6781 33.4905 21.6672 32.703 22.1156C32.2437 22.3672 31.7843 22.225 31.5655 21.8312C31.3359 21.4156 31.4671 20.9125 31.9484 20.6828C32.5499 20.4094 33.1843 20.2234 33.8624 19.9828Z" fill="#258F67"/>
</svg>
