<svg width="30" height="27" viewBox="0 0 30 27" fill="none" xmlns="http://www.w3.org/2000/svg">
<path d="M28.0938 17.9091C27.5935 17.9091 27.1875 18.3164 27.1875 18.8182V25.1818H1.8125V14.2727H11.7812C12.2815 14.2727 12.6875 13.8655 12.6875 13.3636C12.6875 12.8618 12.2815 12.4545 11.7812 12.4545H1.8125V8.81818H11.7812C12.2815 8.81818 12.6875 8.41091 12.6875 7.90909C12.6875 7.40727 12.2815 7 11.7812 7H1.8125C0.812 7 0 7.81455 0 8.81818V25.1818C0 26.1855 0.812 27 1.8125 27H27.1875C28.188 27 29 26.1855 29 25.1818V18.8182C29 18.3164 28.594 17.9091 28.0938 17.9091Z" fill="#258F67"/>
<path d="M9 18H5C4.448 18 4 18.448 4 19C4 19.552 4.448 20 5 20H9C9.552 20 10 19.552 10 19C10 18.448 9.552 18 9 18Z" fill="#258F67"/>
<path fill-rule="evenodd" clip-rule="evenodd" d="M23 1.00008L29 3.85008C29.7769 4.07578 30 4.41969 30 4.80008V8.60008C30 13.8344 28.0931 16.8897 23 20.0001C22.7214 20.0001 22.5315 19.9927 22.3918 19.9872C22.2 19.9797 22.1027 19.9759 22 20.0001C16.9069 16.8821 15 13.8268 15 8.60008V4.80008C15 4.41969 15.2231 4.07578 16 3.85008L22 1.00008C22.3669 0.974907 22.6312 0.974907 23 1.00008ZM23 18.0001C26.5993 15.448 28 13.0274 28 8.62508V5.81258L23 3.00008L17 5.81258V8.62508C17 13.0217 18.4007 15.4423 23 18.0001Z" fill="#258F67"/>
<path d="M25.6719 7.18581C25.2956 6.89433 24.7461 6.95091 24.4417 7.31954L21.6908 10.6904L20.6023 9.09587C20.3311 8.70151 19.7869 8.59692 19.3896 8.85754C18.9889 9.11987 18.8786 9.65311 19.1464 10.0458L20.8963 12.6176C21.0521 12.8457 21.3075 12.9863 21.5875 13C21.5998 13 21.6138 13 21.6243 13C21.8885 13 22.1405 12.8834 22.3085 12.6777L25.8083 8.39117C26.1093 8.02081 26.0498 7.48243 25.6719 7.18581Z" fill="#258F67"/>
</svg>
