<svg width="30" height="23" viewBox="0 0 30 23" fill="none" xmlns="http://www.w3.org/2000/svg">
<path fill-rule="evenodd" clip-rule="evenodd" d="M19 18.2376C19 16.0028 20.7944 14.1848 23 14.1848C25.2056 14.1848 27 16.0028 27 18.2376C27 20.4724 25.206 22.2904 23 22.2904C20.7944 22.2904 19 20.4724 19 18.2376ZM21 18.2376C21 19.3551 21.897 20.264 23 20.264C24.103 20.264 25 19.3552 25 18.2376C25 17.1201 24.103 16.2112 23 16.2112C21.897 16.2112 21 17.1201 21 18.2376Z" fill="#258F67"/>
<path fill-rule="evenodd" clip-rule="evenodd" d="M6 18.2376C6 16.0028 7.79435 14.1848 10 14.1848C12.2056 14.1848 14 16.0028 14 18.2376C14 20.4724 12.2056 22.2904 10 22.2904C7.79435 22.2904 6 20.4724 6 18.2376ZM8 18.2376C8 19.3551 8.89702 20.264 10 20.264C11.103 20.264 12 19.3552 12 18.2376C12 17.1201 11.1027 16.2112 10 16.2112C8.89702 16.2112 8 17.1201 8 18.2376Z" fill="#258F67"/>
<path d="M24.8465 3.49097C24.6678 3.21417 24.3044 3.03955 23.9071 3.03955H19V4.67903H23.2588L26.1212 9.11873L28 8.38203L24.8465 3.49097Z" fill="#258F67"/>
<rect x="13" y="16.2112" width="7" height="3.03959" fill="#258F67"/>
<path d="M6.90239 16.2112H3.09754C2.49129 16.2112 2 16.8916 2 17.731C2 18.5705 2.49136 19.2508 3.09754 19.2508H6.90246C7.50871 19.2508 8 18.5704 8 17.731C8 16.8915 7.50865 16.2112 6.90239 16.2112Z" fill="#258F67"/>
<path d="M29.8038 11.0448L27.9662 8.48251C27.7896 8.23571 27.5171 8.0914 27.2284 8.0914H20.4394V1.0114C20.4394 0.45273 20.0212 0 19.5052 0H3.93423C3.41819 0 3 0.452793 3 1.0114C3 1.57001 3.41824 2.0228 3.93423 2.0228H18.5709V9.1028C18.5709 9.66148 18.9892 10.1142 19.5052 10.1142H26.7709L28.1315 12.0116V17.2279H26.5467C26.0306 17.2279 25.6124 17.6807 25.6124 18.2393C25.6124 18.798 26.0307 19.2507 26.5467 19.2507H29.0657C29.5818 19.2507 29.9999 18.7979 30 18.2393V11.6652C30 11.4406 29.9309 11.2221 29.8038 11.0448Z" fill="#258F67"/>
<path d="M6.09098 12.1584H1.90908C1.40693 12.1584 1 12.8388 1 13.6782C1 14.5177 1.40698 15.198 1.90908 15.198H6.09092C6.59307 15.198 7 14.5176 7 13.6782C7.00006 12.8388 6.59307 12.1584 6.09098 12.1584Z" fill="#258F67"/>
<path d="M9.05066 8.10547H0.949344C0.42501 8.10547 0 8.78584 0 9.62531C0 10.4648 0.42501 11.1451 0.949344 11.1451H9.05066C9.57505 11.1451 10 10.4647 10 9.62531C10 8.78594 9.57505 8.10547 9.05066 8.10547Z" fill="#258F67"/>
<path d="M10.0507 4.05273H1.94934C1.42495 4.05273 1 4.73313 1 5.57253C1 6.41202 1.42501 7.09232 1.94934 7.09232H10.0507C10.575 7.09232 11 6.41193 11 5.57253C11.0001 4.73313 10.575 4.05273 10.0507 4.05273Z" fill="#258F67"/>
</svg>
