<svg width="18" height="25" viewBox="0 0 18 25" fill="none" xmlns="http://www.w3.org/2000/svg">
<path d="M9 25C6.61395 24.9971 4.32645 24.0479 2.63925 22.3608C0.952057 20.6736 0.00291096 18.3861 0 16C0.0538212 14.2457 0.569135 12.5366 1.494 11.045L8.153 0.437006C8.24918 0.302015 8.37623 0.191968 8.52357 0.116037C8.6709 0.040105 8.83425 0.000488281 9 0.000488281C9.16575 0.000488281 9.3291 0.040105 9.47643 0.116037C9.62377 0.191968 9.75082 0.302015 9.847 0.437006L16.477 10.993C17.4174 12.4985 17.9428 14.2259 18 16C17.9971 18.3861 17.0479 20.6736 15.3607 22.3608C13.6735 24.0479 11.3861 24.9971 9 25ZM9 2.84801L3.218 12.056C2.473 13.241 2.05293 14.6012 2 16C2 17.8565 2.7375 19.637 4.05025 20.9498C5.36301 22.2625 7.14348 23 9 23C10.8565 23 12.637 22.2625 13.9497 20.9498C15.2625 19.637 16 17.8565 16 16C15.9429 14.5817 15.5124 13.2036 14.752 12.005L9 2.84801Z" fill="#258F67"/>
<path d="M9 21V19C9.77323 18.9332 10.4981 18.5957 11.0469 18.0469C11.5957 17.4981 11.9332 16.7732 12 16H14C13.9354 17.3052 13.3878 18.5397 12.4638 19.4638C11.5397 20.3878 10.3052 20.9354 9 21Z" fill="#258F67"/>
</svg>
