<svg width="16" height="17" viewBox="0 0 16 17" fill="none" xmlns="http://www.w3.org/2000/svg">
<path d="M13.6445 2.66016C14.3828 3.43359 14.9453 4.27734 15.3672 5.22656C15.7891 6.17578 16 7.16016 16 8.17969C16 9.58594 15.6133 10.8867 14.9102 12.082C14.207 13.2773 13.2227 14.2266 12.0273 14.9297C10.832 15.6328 9.53125 15.9844 8.125 15.9844C6.78906 15.9844 5.52344 15.668 4.39844 15.0352L0.25 16.125L1.375 12.082C0.671875 10.8867 0.320312 9.58594 0.320312 8.17969C0.320312 6.77344 0.671875 5.47266 1.375 4.27734C2.07812 3.08203 3.02734 2.13281 4.22266 1.42969C5.41797 0.726562 6.71875 0.375 8.125 0.375C9.14453 0.375 10.1289 0.585938 11.0781 0.972656C12.0273 1.39453 12.8711 1.95703 13.6445 2.66016ZM8.125 14.6836C9.28516 14.6836 10.375 14.4023 11.3945 13.8047C12.3789 13.2422 13.1875 12.4336 13.7852 11.4492C14.3828 10.4648 14.6992 9.375 14.6992 8.17969C14.6992 7.33594 14.5234 6.52734 14.1719 5.71875C13.8203 4.94531 13.3281 4.24219 12.6953 3.60938C12.0625 2.97656 11.3594 2.51953 10.5859 2.16797C9.8125 1.85156 8.96875 1.67578 8.125 1.67578C6.92969 1.67578 5.83984 1.99219 4.85547 2.55469C3.87109 3.15234 3.0625 3.96094 2.5 4.94531C1.90234 5.92969 1.62109 7.01953 1.62109 8.17969C1.62109 9.44531 1.9375 10.5703 2.64062 11.625L2.78125 11.8711L2.11328 14.2617L4.57422 13.6289L4.82031 13.7695C5.80469 14.4023 6.92969 14.6836 8.125 14.6836ZM11.6758 9.79688L11.7812 9.86719C11.9219 9.9375 12.0273 10.0078 12.0625 10.043C12.0625 10.1133 12.0625 10.2188 12.0625 10.3945C12.0625 10.6055 11.9922 10.7812 11.9219 10.9922C11.8516 11.2031 11.6406 11.3789 11.3594 11.5898C11.0781 11.8008 10.832 11.9062 10.6211 11.9062C10.2695 11.9766 9.95312 11.9766 9.67188 11.9062C9.32031 11.8359 8.82812 11.6953 8.26562 11.4141C7.07031 10.9219 5.98047 9.9375 4.99609 8.53125L4.92578 8.46094C4.39844 7.75781 4.15234 7.08984 4.15234 6.45703C4.15234 5.85938 4.36328 5.33203 4.78516 4.875L4.82031 4.83984C4.96094 4.69922 5.13672 4.59375 5.34766 4.59375H5.76953C5.83984 4.59375 5.91016 4.62891 5.98047 4.66406C6.05078 4.69922 6.08594 4.76953 6.15625 4.91016L6.75391 6.35156C6.82422 6.49219 6.82422 6.63281 6.78906 6.70312C6.64844 6.94922 6.50781 7.16016 6.33203 7.33594C6.22656 7.44141 6.15625 7.51172 6.15625 7.58203C6.12109 7.65234 6.15625 7.6875 6.22656 7.75781C6.54297 8.39062 6.92969 8.84766 7.38672 9.19922C7.70312 9.48047 8.19531 9.76172 8.86328 10.0781C9.03906 10.1836 9.17969 10.1836 9.28516 10.043C9.56641 9.69141 9.77734 9.44531 9.91797 9.26953C9.95312 9.19922 10.0234 9.12891 10.0938 9.12891C10.1641 9.12891 10.2344 9.16406 10.3398 9.16406C10.5156 9.23438 10.9727 9.44531 11.6758 9.79688Z" fill="#EFC368"/>
</svg>
