<svg width="17" height="16" viewBox="0 0 17 16" fill="none" xmlns="http://www.w3.org/2000/svg">
<path d="M15.7812 11.3125L12.2812 9.8125C12.1875 9.78125 12.0938 9.75 11.9688 9.75C11.75 9.75 11.5312 9.875 11.4062 10.0312L9.84375 11.9375C7.40625 10.7812 5.46875 8.84375 4.3125 6.40625L6.21875 4.84375C6.375 4.71875 6.5 4.5 6.5 4.25C6.5 4.15625 6.46875 4.0625 6.4375 3.96875L4.9375 0.46875C4.8125 0.1875 4.53125 0 4.21875 0C4.1875 0 4.125 0.03125 4.0625 0.03125L0.8125 0.78125C0.46875 0.875 0.25 1.15625 0.25 1.5C0.25 9.53125 6.71875 16 14.75 16C15.0938 16 15.375 15.7812 15.4688 15.4375L16.2188 12.1875C16.2188 12.125 16.2188 12.0625 16.2188 12.0312C16.2188 11.7188 16.0312 11.4375 15.7812 11.3125Z" fill="white"/>
</svg>
