<svg width="18" height="15" viewBox="0 0 18 15" fill="none" xmlns="http://www.w3.org/2000/svg">
<path d="M18 6.75C18 6.34375 17.6562 6 17.25 6H15.125L11.7812 1.4375C11.4688 0.96875 10.8438 0.875 10.4062 1.21875C9.9375 1.53125 9.84375 2.15625 10.1875 2.59375L12.6562 6H5.3125L7.78125 2.59375C8.125 2.15625 8.03125 1.53125 7.5625 1.21875C7.125 0.875 6.5 0.96875 6.1875 1.4375L2.84375 6H0.75C0.3125 6 0 6.34375 0 6.75V7.25C0 7.6875 0.3125 8 0.75 8H1L1.8125 13.7188C1.90625 14.4688 2.53125 15 3.28125 15H14.6875C15.4375 15 16.0625 14.4688 16.1562 13.7188L17 8H17.25C17.6562 8 18 7.6875 18 7.25V6.75ZM9.75 12.25C9.75 12.6875 9.40625 13 9 13C8.5625 13 8.25 12.6875 8.25 12.25V8.75C8.25 8.34375 8.5625 8 9 8C9.40625 8 9.75 8.34375 9.75 8.75V12.25ZM13.25 12.25C13.25 12.6875 12.9062 13 12.5 13C12.0625 13 11.75 12.6875 11.75 12.25V8.75C11.75 8.34375 12.0625 8 12.5 8C12.9062 8 13.25 8.34375 13.25 8.75V12.25ZM6.25 12.25C6.25 12.6875 5.90625 13 5.5 13C5.0625 13 4.75 12.6875 4.75 12.25V8.75C4.75 8.34375 5.0625 8 5.5 8C5.90625 8 6.25 8.34375 6.25 8.75V12.25Z" fill="#214842"/>
</svg>
