<svg width="16" height="17" viewBox="0 0 16 17" fill="none" xmlns="http://www.w3.org/2000/svg">
<path d="M8.125 4.20703C8.82812 4.20703 9.49609 4.41797 10.1289 4.76953C10.7617 5.12109 11.2539 5.61328 11.6055 6.24609C11.957 6.87891 12.168 7.54688 12.168 8.25C12.168 8.98828 11.957 9.65625 11.6055 10.2891C11.2539 10.9219 10.7617 11.4141 10.1289 11.7656C9.49609 12.1172 8.82812 12.293 8.125 12.293C7.38672 12.293 6.71875 12.1172 6.08594 11.7656C5.45312 11.4141 4.96094 10.9219 4.60938 10.2891C4.25781 9.65625 4.08203 8.98828 4.08203 8.25C4.08203 7.54688 4.25781 6.87891 4.60938 6.24609C4.96094 5.61328 5.45312 5.12109 6.08594 4.76953C6.71875 4.41797 7.38672 4.20703 8.125 4.20703ZM8.125 10.8867C8.82812 10.8867 9.46094 10.6406 9.98828 10.1133C10.4805 9.62109 10.7617 8.98828 10.7617 8.25C10.7617 7.54688 10.4805 6.91406 9.98828 6.38672C9.46094 5.89453 8.82812 5.61328 8.125 5.61328C7.38672 5.61328 6.75391 5.89453 6.26172 6.38672C5.73438 6.91406 5.48828 7.54688 5.48828 8.25C5.48828 8.98828 5.73438 9.62109 6.26172 10.1133C6.75391 10.6406 7.38672 10.8867 8.125 10.8867ZM13.293 4.03125C13.293 3.78516 13.1875 3.57422 13.0117 3.36328C12.8008 3.1875 12.5898 3.08203 12.3438 3.08203C12.0625 3.08203 11.8516 3.1875 11.6758 3.36328C11.4648 3.57422 11.3945 3.78516 11.3945 4.03125C11.3945 4.3125 11.4648 4.52344 11.6758 4.69922C11.8516 4.91016 12.0625 4.98047 12.3438 4.98047C12.5898 4.98047 12.8008 4.91016 12.9766 4.69922C13.1523 4.52344 13.2578 4.3125 13.293 4.03125ZM15.9648 4.98047C15.9648 5.64844 16 6.73828 16 8.25C16 9.79688 15.9648 10.8867 15.9297 11.5547C15.8945 12.2227 15.7891 12.7852 15.6484 13.2773C15.4375 13.875 15.0859 14.4023 14.6641 14.8242C14.2422 15.2461 13.7148 15.5625 13.1523 15.7734C12.6602 15.9492 12.0625 16.0547 11.3945 16.0898C10.7266 16.125 9.63672 16.125 8.125 16.125C6.57812 16.125 5.48828 16.125 4.82031 16.0898C4.15234 16.0547 3.58984 15.9492 3.09766 15.7383C2.5 15.5625 1.97266 15.2461 1.55078 14.8242C1.12891 14.4023 0.8125 13.875 0.601562 13.2773C0.425781 12.7852 0.320312 12.2227 0.285156 11.5547C0.25 10.8867 0.25 9.79688 0.25 8.25C0.25 6.73828 0.25 5.64844 0.285156 4.98047C0.320312 4.3125 0.425781 3.71484 0.601562 3.22266C0.8125 2.66016 1.12891 2.13281 1.55078 1.71094C1.97266 1.28906 2.5 0.9375 3.09766 0.726562C3.58984 0.585938 4.15234 0.480469 4.82031 0.445312C5.48828 0.410156 6.57812 0.375 8.125 0.375C9.63672 0.375 10.7266 0.410156 11.3945 0.445312C12.0625 0.480469 12.6602 0.585938 13.1523 0.726562C13.7148 0.9375 14.2422 1.28906 14.6641 1.71094C15.0859 2.13281 15.4375 2.66016 15.6484 3.22266C15.7891 3.71484 15.8945 4.3125 15.9648 4.98047ZM14.2773 12.8906C14.418 12.5039 14.4883 11.8711 14.5586 10.9922C14.5586 10.5 14.5938 9.76172 14.5938 8.8125V7.6875C14.5938 6.73828 14.5586 6 14.5586 5.50781C14.4883 4.62891 14.418 3.99609 14.2773 3.60938C13.9961 2.90625 13.4688 2.37891 12.7656 2.09766C12.3789 1.95703 11.7461 1.88672 10.8672 1.81641C10.3398 1.81641 9.60156 1.78125 8.6875 1.78125H7.5625C6.61328 1.78125 5.875 1.81641 5.38281 1.81641C4.50391 1.88672 3.87109 1.95703 3.48438 2.09766C2.74609 2.37891 2.25391 2.90625 1.97266 3.60938C1.83203 3.99609 1.72656 4.62891 1.69141 5.50781C1.65625 6.03516 1.65625 6.77344 1.65625 7.6875V8.8125C1.65625 9.76172 1.65625 10.5 1.69141 10.9922C1.72656 11.8711 1.83203 12.5039 1.97266 12.8906C2.25391 13.6289 2.78125 14.1211 3.48438 14.4023C3.87109 14.543 4.50391 14.6484 5.38281 14.6836C5.875 14.7188 6.61328 14.7188 7.5625 14.7188H8.6875C9.63672 14.7188 10.375 14.7188 10.8672 14.6836C11.7461 14.6484 12.3789 14.543 12.7656 14.4023C13.4688 14.1211 13.9961 13.5938 14.2773 12.8906Z" fill="#214842"/>
</svg>
