<svg width="30" height="33" viewBox="0 0 30 33" fill="none" xmlns="http://www.w3.org/2000/svg">
<path fill-rule="evenodd" clip-rule="evenodd" d="M26.7569 13.4134H26.838C28.7029 13.4134 30.0001 15.4615 30 17.1882V22.2082C30 23.7745 28.9055 24.8588 27.1623 24.9792L26.392 26.1037C24.8693 28.1098 22.4799 29.2858 19.9463 29.2763C19.8325 30.0036 19.4924 30.6775 18.9733 31.204C18.2041 31.9839 17.1551 32.4313 16.0545 32.449C13.8314 32.4491 12.0228 30.6755 12.0006 28.4732C12.0156 26.5955 13.3546 24.9842 15.2119 24.609C17.3837 24.1702 19.5034 25.5587 19.9463 27.7101C21.9695 27.7197 23.8783 26.7816 25.0948 25.1801L25.1759 25.0596H24.2435C24.2282 25.0589 24.2129 25.0578 24.1977 25.0562C23.7747 25.0114 23.4685 24.6353 23.5138 24.2163V14.3772C23.5138 13.8952 23.7976 13.4133 24.2435 13.4133H25.1354V11.4455C25.1354 6.01149 20.6886 1.60632 15.2032 1.60632C9.71792 1.60632 5.27113 6.01149 5.27113 11.4455V13.4133H6.163C6.60894 13.4133 6.8927 13.8953 6.8927 14.3772V24.2163C6.89433 24.2314 6.89549 24.2465 6.89619 24.2617C6.91621 24.6826 6.58791 25.0399 6.163 25.0597H3.16311C3.14915 25.0595 3.13526 25.0593 3.12129 25.0589C1.35314 25.0144 -0.0438734 23.5584 0.00105395 21.8068V16.7868C0.00105395 14.9796 1.37937 13.4134 3.16311 13.4134H3.64955V11.4455C3.64955 5.12435 8.82225 0 15.2032 0C21.5842 0 26.7569 5.12435 26.7569 11.4455V13.4134ZM3.16311 23.4533H5.27113V15.0197H3.16311C2.27124 15.0197 1.62263 15.8631 1.62263 16.7867V21.8067C1.62193 21.821 1.62139 21.8352 1.621 21.8494C1.59974 22.7142 2.29017 23.4322 3.16311 23.4533ZM17.7978 30.0797C17.3485 30.5622 16.7173 30.8386 16.0546 30.8427C14.7357 30.822 13.6653 29.7793 13.6223 28.4733C13.6217 27.1647 14.6921 26.1034 16.0131 26.1029C17.3341 26.1023 18.4053 27.1627 18.4059 28.4713V28.4733C18.4396 29.0695 18.219 29.6524 17.7978 30.0797ZM26.8379 23.4533C27.3244 23.4533 28.3784 23.2927 28.3784 22.2084V17.1884C28.3784 16.2647 27.7298 15.0198 26.8379 15.0198H25.1353V23.4533H26.8379Z" fill="#258F67"/>
</svg>
