<svg width="46" height="45" viewBox="0 0 46 45" fill="none" xmlns="http://www.w3.org/2000/svg">
<path d="M27.0702 0C27.7558 0.369141 28.5204 0.65918 29.1181 1.13379C30.955 2.61035 31.5263 5.1416 30.5682 7.29492C30.1903 8.12988 30.0233 8.97363 30.0409 9.8877C30.0673 11.4082 30.0585 12.9287 30.0497 14.458C30.0497 14.7217 30.0936 14.8623 30.3837 14.959C31.4472 15.293 32.1063 16.04 32.1942 17.1475C32.247 17.8506 32.2382 18.5977 32.0536 19.2744C31.6669 20.6631 30.6825 21.5068 29.285 21.8848C29.1181 21.9287 28.9423 22.0781 28.8456 22.2275C28.3798 22.9307 27.9579 23.6689 27.4657 24.3545C27.246 24.6621 27.1229 24.9434 27.1493 25.3125C27.1757 25.6729 27.1581 26.042 27.1581 26.3408C28.3358 26.5342 29.4872 26.6484 30.5946 26.9385C31.702 27.2285 32.7567 27.7119 33.8554 28.1162C33.8554 27.29 33.8554 26.4199 33.8554 25.541C33.8554 23.5635 35.1122 22.3066 37.0897 22.2979C38.6454 22.2979 40.1923 22.2979 41.7479 22.2979C43.5145 22.2979 44.6308 23.2383 44.9559 24.9697C44.9735 25.0488 44.9999 25.1367 45.0263 25.2158C45.0263 26.9736 45.0263 28.7314 45.0263 30.4893C44.9647 30.7441 44.9208 30.999 44.8505 31.2539C44.4813 32.502 43.3475 33.3721 42.0468 33.3984C41.5809 33.4072 41.1063 33.3984 40.6405 33.3984C40.1835 33.3984 39.7352 33.3984 39.1991 33.3984C39.2782 33.5654 39.3309 33.6885 39.4013 33.8027C40.5878 35.9824 41.1503 38.3203 41.1415 40.7988C41.1415 41.8623 40.5878 42.416 39.5067 42.4248C35.6132 42.4248 31.7108 42.4248 27.8173 42.4248C27.6151 42.4248 27.3515 42.4336 27.2284 42.3193C27.0614 42.1611 26.8944 41.8711 26.9296 41.6689C26.9647 41.4668 27.2196 41.2734 27.413 41.1416C27.5272 41.0625 27.7294 41.1152 27.8876 41.1152C31.6932 41.1152 35.5077 41.1064 39.3134 41.124C39.7177 41.124 39.8319 41.0186 39.8319 40.6143C39.788 38.1621 39.1552 35.877 37.8632 33.7852C37.705 33.5215 37.538 33.3809 37.204 33.4072C35.1825 33.5742 33.7235 31.9131 33.8554 30.0938C33.8642 29.9619 33.8026 29.751 33.7059 29.6895C32.7831 29.0918 31.7899 28.6436 30.7265 28.3359C30.5683 28.7314 30.454 29.1094 30.2782 29.4521C29.2147 31.5527 27.4921 32.7041 25.1366 32.7656C22.579 32.8271 20.0126 32.8008 17.4462 32.7744C14.8358 32.748 12.6473 31.0869 11.8915 28.582C11.8739 28.5117 11.8388 28.4502 11.7772 28.2568C10.9071 28.6611 10.0194 28.9951 9.21082 29.4609C8.47254 29.874 7.81336 30.4189 7.12782 30.9199C6.84657 31.1309 6.56532 31.2451 6.24012 31.043C5.82704 30.7881 5.82703 30.3047 6.24891 29.9355C7.54969 28.793 9.01747 27.9316 10.6434 27.334C12.1376 26.7803 13.6845 26.499 15.3192 26.4551C15.3192 25.8047 15.4335 25.2158 14.9061 24.627C14.2733 23.915 13.8339 23.0361 13.2889 22.2363C13.1923 22.0869 13.0165 21.9375 12.8495 21.8936C11.2323 21.4805 10.1161 20.25 9.93153 18.5977C9.87879 18.167 9.87 17.7188 9.90516 17.2793C10.0282 15.9697 10.7841 15.1875 12.0761 14.8359C12.0761 14.6865 12.0761 14.5283 12.0761 14.3701C12.0761 12.1729 12.0761 9.97559 12.0761 7.77832C12.0761 6.91699 12.2431 6.09082 12.6122 5.30859C12.8319 4.85156 13.1835 4.68457 13.5614 4.86035C13.9306 5.02734 13.9657 5.37891 13.8163 5.88867C13.6229 6.5127 13.4559 7.1543 13.412 7.7959C13.3417 8.70117 13.3944 9.60645 13.3944 10.4678C15.7059 10.1865 18.0175 10.3623 20.3114 10.3359C22.4823 10.3008 24.6444 10.3184 26.8153 10.3359C27.4393 10.3359 28.0546 10.415 28.7313 10.459C28.7313 10.3887 28.7577 10.2393 28.7489 10.0898C28.6786 8.89453 28.9335 7.78711 29.4169 6.67969C30.3309 4.57031 29.1708 2.07422 27.0087 1.41504C26.9384 1.51172 26.8593 1.6084 26.7802 1.71387C25.9013 2.87402 24.7499 3.50684 23.2909 3.52441C21.4452 3.54199 19.5995 3.48926 17.7538 3.55078C17.0682 3.56836 16.3827 3.7793 15.7147 3.97266C15.2489 4.10449 14.8973 4.06055 14.7304 3.70898C14.5634 3.34863 14.7216 2.99707 15.1434 2.78613C15.9345 2.39062 16.7694 2.22363 17.6483 2.22363C19.4677 2.22363 21.2782 2.21484 23.0975 2.22363C24.372 2.23242 25.3036 1.69629 25.954 0.597656C26.0946 0.360352 26.3671 0.202148 26.5692 0.00878906C26.7186 0 26.8944 0 27.0702 0ZM21.0497 11.6367C18.9579 11.6367 16.8661 11.6367 14.7655 11.6367C13.7987 11.6367 13.3681 12.0762 13.3681 13.0342C13.3681 13.7373 13.3681 14.4404 13.3681 15.1436C13.3681 15.9609 13.2362 16.0928 12.41 16.1543C11.7684 16.1982 11.3114 16.6025 11.2147 17.2354C11.1708 17.4902 11.1796 17.7627 11.1796 18.0264C11.1884 19.4941 12.0761 20.4873 13.535 20.6455C13.869 20.6807 14.0888 20.8213 14.2118 21.1201C14.8358 22.6406 15.8466 23.8711 17.0067 25.0137C19.3007 27.2725 22.7899 27.2725 25.0927 25.0137C26.2528 23.8711 27.2636 22.6406 27.8876 21.1201C28.0106 20.8213 28.2391 20.7158 28.5556 20.6367C29.039 20.5137 29.5575 20.373 29.9618 20.0918C30.7704 19.5293 30.9462 18.6592 30.9286 17.7188C30.9022 16.6641 30.5243 16.2334 29.4784 16.1455C28.9599 16.1016 28.7489 15.8906 28.7401 15.3633C28.7313 14.6162 28.7401 13.8691 28.7401 13.1221C28.7401 12.0498 28.327 11.6367 27.2548 11.6367C25.1806 11.6367 23.1151 11.6367 21.0497 11.6367ZM13.0692 27.958C13.1132 28.125 13.122 28.2129 13.1483 28.292C13.7108 30.1289 15.4071 31.4385 17.3407 31.4561C19.9159 31.4824 22.4911 31.4736 25.0663 31.4561C26.077 31.4561 26.9911 31.1133 27.7821 30.4805C28.5819 29.8477 29.1181 29.0303 29.3729 27.9492C28.6434 27.8877 27.9667 27.7998 27.2811 27.7734C26.1913 27.7295 25.8573 27.4307 25.8046 26.3232C25.8046 26.2881 25.7782 26.2529 25.7431 26.1738C24.4599 27.3164 22.9657 27.9404 21.2694 27.9932C19.5556 28.0547 18.0263 27.5186 16.6552 26.4639C16.4706 27.4658 16.1454 27.7207 15.1698 27.7646C14.4931 27.8086 13.7987 27.8965 13.0692 27.958ZM39.3837 32.0977C40.1747 32.0977 40.9657 32.0977 41.7567 32.0977C41.7831 32.0977 41.8183 32.0977 41.8446 32.0977C42.9081 32.0801 43.6288 31.4121 43.6464 30.3574C43.6727 28.6875 43.6727 27.0176 43.6464 25.3477C43.6288 24.3018 42.9257 23.625 41.8798 23.6162C40.2274 23.5986 38.5663 23.5986 36.914 23.6162C35.8593 23.625 35.1561 24.3457 35.1561 25.4004C35.1474 27.0439 35.1474 28.6787 35.1561 30.3223C35.1649 31.3682 35.8681 32.0801 36.9227 32.0977C37.7401 32.1064 38.5575 32.0977 39.3837 32.0977Z" fill="#258F67"/>
<path d="M18.8087 45C18.5275 44.9297 18.2462 44.8681 17.965 44.789C16.673 44.4375 15.5831 43.7519 14.7306 42.7148C14.5548 42.4951 14.3702 42.4248 14.0978 42.4248C10.4327 42.4336 6.77648 42.4336 3.11144 42.4336C1.82824 42.4336 1.31847 41.9238 1.32726 40.6494C1.35363 37.6347 2.19738 34.8838 3.9464 32.4228C4.06945 32.2558 4.24523 32.0449 4.4298 32.0185C4.64074 31.9834 4.95714 32.0625 5.08019 32.2119C5.21203 32.3613 5.19445 32.6601 5.18566 32.8887C5.17687 33.0117 5.04503 33.1347 4.95714 33.2578C3.40148 35.4902 2.65441 37.9687 2.62804 40.6758C2.62804 40.9746 2.6632 41.124 3.02355 41.124C6.51281 41.1152 9.99328 41.1152 13.4825 41.1152C13.5441 41.1152 13.5968 41.1064 13.8165 41.0801C13.5968 40.8076 13.4386 40.5879 13.2628 40.3945C12.8497 39.9111 12.4366 39.4277 12.006 38.9531C11.8653 38.7949 11.6984 38.6455 11.5138 38.54C11.2237 38.373 10.8986 38.2763 10.6173 38.083C10.2042 37.8017 10.1515 37.4062 10.38 36.9668C10.4415 36.8437 10.4415 36.6504 10.3888 36.5185C10.0987 35.8681 10.4152 35.2881 11.1359 35.3232C11.8214 35.3584 12.2872 35.1562 12.7882 34.6465C14.6339 32.7656 17.8419 33.5039 18.7911 35.956C18.8439 36.1055 18.9054 36.2549 18.9669 36.4306C20.1095 36.1494 20.9972 35.5342 21.7003 34.6289C21.7706 34.5322 21.8321 34.4355 21.9025 34.3476C22.3771 33.7148 23.0978 33.7676 23.4405 34.4795C24.2843 36.2285 24.3107 38.0039 23.5548 39.7881C23.4405 40.0517 23.2999 40.3066 23.1329 40.6582C23.4493 40.5879 23.7042 40.5527 23.9503 40.4824C24.3634 40.3594 24.7413 40.3681 25.0226 40.7373C25.3126 41.1064 25.2071 41.4756 24.9962 41.8359C23.9855 43.5322 22.5177 44.5605 20.5665 44.9121C20.4698 44.9297 20.3732 44.9648 20.2765 45C19.8019 45 19.3097 45 18.8087 45ZM22.588 35.7715C22.5089 35.7978 22.4913 35.7978 22.4825 35.8066C22.4122 35.8769 22.3419 35.956 22.2628 36.0263C21.296 36.9756 20.1622 37.5996 18.8175 37.8193C18.0968 37.9336 17.8507 37.7578 17.7364 37.0107C17.5782 36.0176 16.8751 35.2265 15.9523 34.998C14.9855 34.7607 13.9747 35.1035 13.4298 35.9121C13.1398 36.3515 12.8409 36.7119 12.2784 36.6504C12.2784 36.8965 12.2784 37.0986 12.2784 37.3271C12.753 37.3623 12.964 37.6787 13.0958 38.1094C13.2628 38.6455 13.5968 39.0849 14.089 39.3486C14.5109 39.5771 14.7306 39.8847 14.88 40.333C16.0138 43.7256 20.3292 44.8066 22.9396 42.3721C23.0363 42.2842 23.1241 42.1699 23.2823 41.9941C22.7638 41.9941 22.3507 42.0117 21.9464 41.9853C21.6212 41.9678 21.3048 41.8271 21.2609 41.4844C21.2345 41.2295 21.3575 40.9482 21.4366 40.6846C21.463 40.6054 21.5509 40.5527 21.6036 40.4912C22.755 39.0762 23.0626 37.5205 22.588 35.7715Z" fill="#258F67"/>
<path d="M0 18.8086C0.219727 18.0703 0.808594 18.0176 1.45898 18.0703C1.52051 17.6748 1.54688 17.2969 1.63477 16.9365C2.16211 14.6953 4.00781 13.2012 6.3457 13.1221C6.56543 13.1133 6.78516 13.1133 7.00488 13.1221C7.5498 13.1484 7.88379 13.4561 7.89258 14.001C7.91016 14.7656 7.91016 15.5215 7.89258 16.2861C7.88379 16.8486 7.57617 17.1475 7.02246 17.1914C6.82031 17.209 6.60938 17.1914 6.40723 17.2002C5.89746 17.2266 5.66895 17.4551 5.59863 18.044C5.76562 18.0527 5.93262 18.0615 6.09961 18.0703C6.74121 18.0967 7.03125 18.3867 7.04004 19.0283C7.04883 19.749 7.04883 20.4609 7.04004 21.1816C7.03125 21.8145 6.72363 22.1221 6.1084 22.1484C5.9502 22.1572 5.79199 22.1484 5.57227 22.1484C5.57227 22.3418 5.57227 22.5 5.57227 22.6582C5.57227 23.8447 5.58105 25.0313 5.57227 26.2178C5.56348 26.8858 5.26465 27.167 4.59668 27.1758C3.91113 27.1846 3.22559 27.1758 2.53125 27.1758C1.81934 27.1758 1.51172 26.877 1.51172 26.1651C1.51172 24.8467 1.51172 23.5371 1.51172 22.1484C0.834961 22.1836 0.202148 22.1484 0 21.3574C0 20.5049 0 19.6611 0 18.8086ZM1.37109 20.7949C2.82129 20.9443 2.82129 20.9443 2.82129 22.3857C2.82129 22.4561 2.82129 22.5352 2.82129 22.6055C2.82129 23.669 2.82129 24.7324 2.82129 25.8135C3.32227 25.8135 3.7793 25.8135 4.2627 25.8135C4.2627 25.6201 4.2627 25.4619 4.2627 25.2949C4.2627 24.126 4.25391 22.9483 4.2627 21.7793C4.2627 21.085 4.53516 20.8301 5.2207 20.8213C5.37891 20.8213 5.52832 20.8213 5.7041 20.8213C5.7041 20.3203 5.7041 19.8721 5.7041 19.4063C5.44922 19.3975 5.2207 19.3887 4.99219 19.3711C4.64941 19.3447 4.38574 19.169 4.31543 18.835C4.00781 17.2354 4.81641 16.0049 6.24902 15.8906C6.3457 15.8818 6.44238 15.8555 6.55664 15.8379C6.55664 15.3721 6.55664 14.9238 6.55664 14.4668C6.47754 14.4492 6.4248 14.4316 6.37207 14.4316C4.71973 14.4229 3.19043 15.6709 2.90918 17.2969C2.83887 17.71 2.84766 18.1406 2.82129 18.5625C2.79492 19.0195 2.5752 19.2832 2.15332 19.3623C1.88965 19.4063 1.49414 19.3711 1.39746 19.5205C1.26562 19.7315 1.35352 20.083 1.34473 20.3731C1.34473 20.5049 1.3623 20.6367 1.37109 20.7949Z" fill="#258F67"/>
<path d="M21.0409 22.5089C20.206 22.5089 19.4677 22.2364 18.8261 21.7003C18.4921 21.4102 18.4394 21.0323 18.6855 20.7335C18.9316 20.4347 19.2831 20.4171 19.6611 20.6808C20.6454 21.3839 21.4452 21.3839 22.4296 20.6808C22.7988 20.4171 23.1591 20.4347 23.4052 20.7335C23.6425 21.0323 23.5898 21.4015 23.2558 21.7003C22.7021 22.2101 21.8759 22.5089 21.0409 22.5089Z" fill="#258F67"/>
<path d="M24.8292 15.3544C25.3653 15.3456 25.7696 15.7411 25.7784 16.2772C25.7784 16.787 25.3917 17.2001 24.8819 17.2177C24.3633 17.2352 23.9239 16.831 23.9063 16.3036C23.8887 15.7851 24.293 15.3632 24.8292 15.3544Z" fill="#258F67"/>
<path d="M17.2529 15.3545C17.7715 15.3545 18.2021 15.7939 18.1846 16.3037C18.1758 16.8223 17.7275 17.2353 17.209 17.2266C16.708 17.209 16.3037 16.7959 16.3037 16.2949C16.3037 15.7588 16.7168 15.3545 17.2529 15.3545Z" fill="#258F67"/>
<path d="M39.4189 25.3829C40.7988 25.3917 41.8975 26.5079 41.8711 27.879C41.8535 29.2589 40.7461 30.3311 39.3574 30.3223C38.0127 30.3047 36.9141 29.1973 36.9141 27.8438C36.9229 26.4815 38.0391 25.3741 39.4189 25.3829ZM40.5527 27.8702C40.5615 27.2286 40.0693 26.7188 39.4365 26.7012C38.7773 26.6836 38.25 27.1846 38.2324 27.835C38.2236 28.4678 38.7246 28.9864 39.3574 29.004C40.0166 29.0303 40.544 28.5294 40.5527 27.8702Z" fill="#258F67"/>
<path d="M42.0468 24.4248C42.4423 24.4248 42.7763 24.7412 42.7851 25.1367C42.7939 25.541 42.4511 25.8926 42.0468 25.8926C41.6513 25.8926 41.3261 25.5674 41.3173 25.1719C41.2998 24.7588 41.6249 24.4248 42.0468 24.4248Z" fill="#258F67"/>
<path d="M15.0908 36.9052C15.082 37.3095 14.7216 37.6347 14.3085 37.6171C13.913 37.5996 13.6054 37.2656 13.6142 36.8701C13.623 36.4658 13.9833 36.123 14.3876 36.1494C14.7831 36.1757 15.1083 36.5273 15.0908 36.9052Z" fill="#258F67"/>
</svg>
