<svg width="65" height="86" viewBox="0 0 65 86" fill="none" xmlns="http://www.w3.org/2000/svg">
<path fill-rule="evenodd" clip-rule="evenodd" d="M54.8034 76.7753C48.8239 82.6054 40.8748 85.8162 32.4196 85.8162C23.9637 85.8162 16.0146 82.6054 10.0351 76.7753C4.05637 70.9459 0.763672 63.1945 0.763672 54.9502C0.763672 51.0364 2.41068 45.7703 5.65934 39.2968C8.22581 34.1813 11.8005 28.2821 16.2834 21.7618C23.9019 10.6823 31.623 1.5088 31.6999 1.41716L32.4189 0.56543L33.1379 1.41716C33.2155 1.5088 40.9366 10.6823 48.5545 21.7618C53.0381 28.2821 56.6127 34.1813 59.1792 39.2968C62.4278 45.7703 64.0748 51.0364 64.0748 54.9502C64.0748 63.1945 60.7821 70.9459 54.8034 76.7753ZM47.0166 22.7853C40.7946 13.7355 34.5036 5.96546 32.4189 3.43656C30.3349 5.96546 24.0439 13.7355 17.822 22.7853C7.88076 37.2454 2.62559 48.3678 2.62559 54.9502C2.62559 70.9683 15.9909 84.0006 32.4196 84.0006C48.8476 84.0006 62.2129 70.9683 62.2129 54.9502C62.2129 48.3678 56.9577 37.2454 47.0166 22.7853ZM43.6213 71.3298C40.629 74.2477 36.6508 75.8544 32.4196 75.8544C28.1877 75.8544 24.2095 74.2477 21.2172 71.3298C18.2248 68.4125 16.5772 64.5333 16.5772 60.4073C16.5772 59.8318 16.6902 58.8288 17.1982 57.2375C17.3902 56.3999 17.7069 55.561 18.1486 54.7227C18.6231 53.6134 19.237 52.3284 20.0269 50.8461C20.2405 50.4013 20.4877 49.9508 20.767 49.4945C21.1344 48.8408 21.5326 48.1525 21.9658 47.4283C22.0072 47.3584 22.0492 47.2879 22.0919 47.2168C22.6085 46.3586 23.1718 45.4512 23.7876 44.4911C23.9092 44.2803 24.0472 44.0643 24.2062 43.8419L24.2069 43.8426C24.8595 42.8383 25.566 41.7802 26.3337 40.6638C27.9583 38.3009 29.7545 35.8265 31.6717 33.311L32.4183 32.3305L33.1662 33.311C35.1063 35.8572 36.9196 38.3554 38.5541 40.7362C38.6435 40.8606 38.7677 41.0349 38.9018 41.2444C39.5248 42.159 40.1058 43.0325 40.6494 43.8695C40.9431 44.288 41.2034 44.6943 41.4315 45.0884C41.6832 45.4858 41.9257 45.8741 42.159 46.2529C42.5777 46.8637 42.9391 47.4642 43.2434 48.0538C44.0242 49.3829 44.6847 50.5852 45.2447 51.6734C45.6048 52.2733 45.8999 52.8738 46.1306 53.4749C47.961 57.392 48.2613 59.4691 48.2613 60.4073C48.2613 64.5333 46.6137 68.4125 43.6213 71.3298ZM31.4876 36.6289C30.2139 38.3496 29.0046 40.0396 27.8801 41.6751C26.9495 43.0286 26.1115 44.2931 25.3544 45.4749C25.0416 46.0427 25.012 46.3945 25.1152 46.5464C25.3492 46.8899 26.4546 47.2386 28.8016 47.0892C29.8452 47.0232 30.8422 46.8784 31.4876 46.7694V36.6289ZM31.4876 48.6107C30.8087 48.7177 29.8906 48.8395 28.9225 48.901C28.5065 48.9279 28.1134 48.9407 27.7441 48.9407C25.8539 48.9407 24.5703 48.594 23.85 47.8903C23.7074 48.1268 23.5674 48.3601 23.432 48.5889C22.4396 50.3564 22.2418 51.7087 22.8458 52.6136C23.5306 53.6396 25.3833 54.2882 28.0615 54.4395C29.42 54.5157 30.6983 54.4497 31.4876 54.3863V48.6107ZM31.4876 56.2089C30.927 56.2512 30.1817 56.2903 29.3444 56.2903C28.9113 56.2903 28.4532 56.2794 27.984 56.2538C24.5887 56.0666 22.3351 55.1758 21.2862 53.6057C21.2159 53.5006 21.1515 53.3929 21.093 53.2833C20.717 54.7163 20.8025 56.0372 21.3539 57.2305C23.1087 61.029 29.0198 62.8439 31.4876 63.4502V56.2089ZM31.4876 65.3222C29.0973 64.7864 21.8882 62.8016 19.6576 57.9797C19.5012 57.6413 19.373 57.2959 19.2718 56.9459C19.1568 57.26 19.0582 57.5503 18.9728 57.8188C18.7079 59.1281 18.8315 60.4169 19.3415 61.7128C21.3177 66.7379 28.5492 70.2685 31.4876 71.5252V65.3222ZM31.4876 73.5017C29.4608 72.6974 22.9772 69.8743 19.4026 65.3985C20.096 67.1192 21.1521 68.699 22.5336 70.0461C24.9535 72.4052 28.1042 73.7927 31.4876 74.008V73.5017ZM37.2397 42.0866C37.1641 41.9763 37.0898 41.8674 37.0136 41.7559C35.8746 40.0973 34.6469 38.3797 33.3496 36.6282V43.642C33.8274 43.7407 34.4997 43.8618 35.201 43.931C36.9735 44.1066 37.6787 43.8214 37.8049 43.6458C37.8759 43.5465 37.8903 43.0825 37.2397 42.0866ZM39.8627 46.0703C39.6267 45.6973 39.3822 45.3153 39.1292 44.9244C38.5568 45.5114 37.5998 45.8024 36.2295 45.8024C35.8483 45.8024 35.4356 45.7799 34.99 45.7351C34.3913 45.6755 33.8195 45.5832 33.3496 45.4947V51.2274C35.4704 51.3876 39.448 51.3325 40.4857 49.6893C41.0759 48.7549 40.5922 47.352 39.8627 46.0703ZM42.2208 50.3776C42.1748 50.4673 42.1248 50.5564 42.0703 50.6429C41.1627 52.0785 39.2002 52.8949 36.2361 53.0699C35.8155 53.0949 35.4054 53.1052 35.0189 53.1052C34.3807 53.1052 33.8057 53.0776 33.3496 53.0462V60.2843C35.6045 59.7107 40.6776 58.0668 42.1774 54.6112C42.7236 53.3506 42.7367 51.9343 42.2208 50.3776ZM44.4593 54.2991C44.412 54.1985 44.3647 54.0966 44.3154 53.9928C44.2194 54.4465 44.0781 54.89 43.8901 55.3226C41.9349 59.8215 35.5756 61.648 33.3496 62.1595V68.3459C36.1493 67.1013 42.7676 63.7187 44.4751 58.9301C45.0225 57.3945 45.0193 55.8661 44.4593 54.2991ZM46.2798 59.3915C46.264 59.4377 46.2489 59.4838 46.2325 59.5299C44.0781 65.5644 35.6978 69.3706 33.3496 70.3338V74.008C36.7336 73.7927 39.885 72.4058 42.3049 70.0461C44.945 67.4717 46.3994 64.0481 46.3994 60.4073C46.3994 60.24 46.381 59.9132 46.2798 59.3915Z" fill="white"/>
</svg>
