<svg width="184" height="60" viewBox="0 0 184 60" fill="none" xmlns="http://www.w3.org/2000/svg">
<path fill-rule="evenodd" clip-rule="evenodd" d="M162.221 35.2728H159.268L158.413 27.6341V22.6618H163.076V27.6341L162.221 35.2728ZM160.648 37.4397C161.347 37.4397 161.917 37.6619 162.359 38.1061C162.8 38.5506 163.021 39.1249 163.021 39.8285C163.021 40.5323 162.8 41.1109 162.359 41.5646C161.917 42.0185 161.347 42.245 160.648 42.245C159.967 42.245 159.406 42.0185 158.965 41.5646C158.523 41.1109 158.302 40.5323 158.302 39.8285C158.302 39.1249 158.518 38.5506 158.951 38.1061C159.383 37.6619 159.948 37.4397 160.648 37.4397ZM153.22 41.2452C152.181 41.8748 150.98 42.1894 149.619 42.1894C148.681 42.1894 147.83 42.0091 147.067 41.6478C146.303 41.2868 145.655 40.7638 145.121 40.0784V47.4119H140.21V26.9951H145.121V28.9397C146.207 27.5325 147.669 26.8284 149.509 26.8284C150.888 26.8284 152.103 27.148 153.151 27.7869C154.2 28.4257 155.014 29.3333 155.593 30.5091C156.173 31.6853 156.462 33.0417 156.462 34.5784C156.462 36.097 156.182 37.4304 155.621 38.5785C155.06 39.7268 154.259 40.6158 153.22 41.2452ZM150.626 31.759C150.028 31.0647 149.251 30.7174 148.295 30.7174C147.357 30.7174 146.593 31.0647 146.004 31.759C145.415 32.4534 145.121 33.3563 145.121 34.4673C145.121 35.5785 145.415 36.4769 146.004 37.1619C146.593 37.847 147.357 38.1896 148.295 38.1896C149.251 38.1896 150.028 37.847 150.626 37.1619C151.224 36.4769 151.523 35.5785 151.523 34.4673C151.523 33.3563 151.224 32.4534 150.626 31.759ZM133.702 41.2312C132.469 41.87 131.044 42.1894 129.425 42.1894C127.806 42.1894 126.38 41.87 125.148 41.2312C123.915 40.5924 122.963 39.6942 122.292 38.5367C121.62 37.3796 121.285 36.0325 121.285 34.4952C121.285 32.9769 121.62 31.6387 122.292 30.4812C122.963 29.3241 123.915 28.4257 125.148 27.7869C126.38 27.148 127.806 26.8284 129.425 26.8284C131.044 26.8284 132.469 27.148 133.702 27.7869C134.934 28.4257 135.891 29.3241 136.572 30.4812C137.252 31.6387 137.593 32.9769 137.593 34.4952C137.593 36.0325 137.252 37.3796 136.572 38.5367C135.891 39.6942 134.934 40.5924 133.702 41.2312ZM131.757 31.8562C131.159 31.1713 130.381 30.8285 129.425 30.8285C128.468 30.8285 127.696 31.1713 127.107 31.8562C126.518 32.5416 126.224 33.4396 126.224 34.5508C126.224 35.6804 126.518 36.5881 127.107 37.273C127.696 37.9581 128.468 38.3007 129.425 38.3007C130.4 38.3007 131.181 37.9581 131.771 37.273C132.359 36.5881 132.654 35.6804 132.654 34.5508C132.654 33.4396 132.354 32.5416 131.757 31.8562ZM116.772 32.1201C116.055 32.6664 115.641 33.4119 115.531 34.3562V42.0228H110.619V26.9951H115.531V29.495C116.045 28.625 116.712 27.9583 117.531 27.4951C118.349 27.0324 119.283 26.8007 120.332 26.8007V31.3285C120.166 31.3103 119.918 31.3006 119.587 31.3006C118.428 31.3006 117.49 31.5742 116.772 32.1201ZM103.199 40.8007C101.607 41.6157 99.7813 42.0228 97.7213 42.0228H89.5809V22.5507H97.9144C99.938 22.5507 101.727 22.9583 103.281 23.7731C104.836 24.588 106.045 25.7314 106.91 27.2036C107.775 28.6758 108.207 30.3658 108.207 32.2728C108.207 34.1805 107.77 35.875 106.896 37.3562C106.022 38.8379 104.79 39.986 103.199 40.8007ZM102.371 29.3842C101.92 28.5326 101.299 27.8701 100.508 27.3979C99.7172 26.9258 98.8155 26.6896 97.804 26.6896H94.6307V37.9118H98.0525C99.0271 37.9118 99.8917 37.6803 100.646 37.2174C101.4 36.7547 101.989 36.097 102.412 35.2451C102.835 34.3936 103.047 33.4214 103.047 32.3284C103.047 31.2174 102.821 30.236 102.371 29.3842ZM82.7897 35.2728L81.9343 27.6341V22.6618H86.5978V27.6341L85.7424 35.2728H82.7897ZM84.1695 37.4397C84.8685 37.4397 85.4387 37.6619 85.8803 38.1061C86.3218 38.5506 86.5426 39.1249 86.5426 39.8285C86.5426 40.5323 86.3218 41.1109 85.8803 41.5646C85.4387 42.0185 84.8685 42.245 84.1695 42.245C83.4887 42.245 82.9278 42.0185 82.4863 41.5646C82.0447 41.1109 81.824 40.5323 81.824 39.8285C81.824 39.1249 82.04 38.5506 82.4724 38.1061C82.9046 37.6619 83.4701 37.4397 84.1695 37.4397ZM74.1066 33.9673C74.1066 33.1157 73.8811 32.4445 73.4306 31.9534C72.9794 31.4631 72.3587 31.2174 71.5679 31.2174C70.6663 31.2361 69.9537 31.5555 69.4293 32.1756C68.9051 32.7963 68.6429 33.6062 68.6429 34.6063V42.0228H63.7313V21.4119H68.6429V29.4395C69.1763 28.5694 69.8614 27.9119 70.6987 27.4674C71.5355 27.023 72.4966 26.8007 73.5824 26.8007C75.2379 26.8007 76.5576 27.3194 77.5422 28.3562C78.526 29.3936 79.0183 30.7916 79.0183 32.5506V42.0228H74.1066V33.9673ZM55.8738 41.0506C54.2823 41.9395 52.5025 42.384 50.5344 42.384C48.5658 42.384 46.786 41.9443 45.195 41.0645C43.6036 40.1853 42.3527 38.9722 41.4421 37.4257C40.5316 35.8797 40.0762 34.1526 40.0762 32.2451C40.0762 30.3563 40.5316 28.6526 41.4421 27.1341C42.3527 25.6158 43.6036 24.4213 45.195 23.5508C46.786 22.6805 48.5658 22.2453 50.5344 22.2453C52.5025 22.2453 54.2823 22.6805 55.8738 23.5508C57.4647 24.4213 58.7161 25.6158 59.6267 27.1341C60.5372 28.6526 60.9926 30.3563 60.9926 32.2451C60.9926 34.1526 60.5372 35.875 59.6267 37.4118C58.7161 38.949 57.4647 40.1619 55.8738 41.0506ZM55.1149 29.3702C54.6551 28.4907 54.0249 27.8008 53.2248 27.3008C52.4246 26.8007 51.5459 26.5508 50.5896 26.5508C49.6328 26.5508 48.7452 26.8007 47.9267 27.3008C47.108 27.8008 46.4595 28.4907 45.9813 29.3702C45.5027 30.2499 45.2638 31.2174 45.2638 32.2728C45.2638 33.3471 45.5076 34.324 45.9952 35.2035C46.4823 36.0833 47.1307 36.7777 47.9406 37.2867C48.7499 37.7964 49.6328 38.0506 50.5896 38.0506C51.5459 38.0506 52.4246 37.7964 53.2248 37.2867C54.0249 36.7777 54.6551 36.0833 55.1149 35.2035C55.5746 34.324 55.805 33.3471 55.805 32.2728C55.805 31.2174 55.5746 30.2499 55.1149 29.3702Z" fill="white"/>
<path fill-rule="evenodd" clip-rule="evenodd" d="M29.1533 44.0791C27.0755 46.105 24.3132 47.2207 21.3751 47.2207C18.4368 47.2207 15.6745 46.105 13.5967 44.0791C11.5192 42.0534 10.375 39.3599 10.375 36.4951C10.375 35.1351 10.9473 33.3052 12.0762 31.0557C12.968 29.2781 14.2102 27.2282 15.7679 24.9624C18.4153 21.1124 21.0983 17.9247 21.125 17.8929L21.3749 17.5969L21.6247 17.8929C21.6517 17.9247 24.3347 21.1124 26.9818 24.9624C28.5398 27.2282 29.782 29.2781 30.6738 31.0557C31.8027 33.3052 32.375 35.1351 32.375 36.4951C32.375 39.3599 31.2308 42.0534 29.1533 44.0791ZM26.4474 25.3181C24.2854 22.1734 22.0993 19.4734 21.3749 18.5946C20.6507 19.4734 18.4646 22.1734 16.3026 25.3181C12.8481 30.3428 11.022 34.2078 11.022 36.4951C11.022 42.0612 15.6663 46.5898 21.3751 46.5898C27.0837 46.5898 31.728 42.0612 31.728 36.4951C31.728 34.2078 29.9019 30.3428 26.4474 25.3181ZM25.2676 42.1868C24.2278 43.2008 22.8454 43.7591 21.3751 43.7591C19.9046 43.7591 18.5222 43.2008 17.4824 42.1868C16.4426 41.1731 15.87 39.8251 15.87 38.3914C15.87 38.1914 15.9093 37.8429 16.0859 37.2899C16.1525 36.9988 16.2626 36.7073 16.4161 36.416C16.581 36.0306 16.7943 35.584 17.0688 35.0689C17.143 34.9144 17.2289 34.7578 17.326 34.5993C17.4536 34.3721 17.592 34.1329 17.7425 33.8813C17.7569 33.857 17.7715 33.8325 17.7864 33.8078C17.9659 33.5096 18.1616 33.1943 18.3756 32.8607C18.4178 32.7874 18.4658 32.7123 18.5211 32.6351L18.5213 32.6353C18.7481 32.2863 18.9936 31.9187 19.2603 31.5307C19.8249 30.7096 20.449 29.8498 21.1152 28.9757L21.3747 28.635L21.6346 28.9757C22.3087 29.8605 22.9388 30.7286 23.5068 31.5559C23.5379 31.5991 23.581 31.6597 23.6276 31.7325C23.8441 32.0503 24.046 32.3538 24.2349 32.6446C24.337 32.7901 24.4274 32.9313 24.5066 33.0682C24.5941 33.2063 24.6784 33.3412 24.7595 33.4729C24.9049 33.6851 25.0306 33.8938 25.1363 34.0986C25.4076 34.5605 25.6371 34.9783 25.8317 35.3564C25.9569 35.5649 26.0594 35.7736 26.1396 35.9824C26.7756 37.3436 26.88 38.0653 26.88 38.3914C26.88 39.8251 26.3074 41.1731 25.2676 42.1868ZM21.0513 30.1286C20.6087 30.7265 20.1885 31.3138 19.7977 31.8821C19.4743 32.3525 19.1831 32.7919 18.92 33.2025C18.8113 33.3998 18.8011 33.5221 18.8369 33.5749C18.9182 33.6942 19.3023 33.8154 20.1179 33.7635C20.4806 33.7405 20.827 33.6902 21.0513 33.6524V30.1286ZM21.0513 34.2922C20.8154 34.3294 20.4963 34.3717 20.1599 34.3931C20.0153 34.4024 19.8788 34.4069 19.7504 34.4069C19.0936 34.4069 18.6476 34.2864 18.3973 34.0419C18.3477 34.124 18.2991 34.2051 18.252 34.2846C17.9072 34.8988 17.8384 35.3687 18.0483 35.6831C18.2863 36.0397 18.9301 36.2651 19.8607 36.3176C20.3328 36.3441 20.777 36.3212 21.0513 36.2991V34.2922ZM21.0513 36.9325C20.8565 36.9472 20.5975 36.9608 20.3065 36.9608C20.156 36.9608 19.9968 36.957 19.8338 36.9481C18.654 36.883 17.8709 36.5735 17.5064 36.0279C17.4819 35.9914 17.4596 35.9539 17.4392 35.9159C17.3086 36.4138 17.3383 36.8728 17.5299 37.2875C18.1397 38.6074 20.1937 39.2381 21.0513 39.4487V36.9325ZM21.0513 40.0992C20.2207 39.9131 17.7156 39.2234 16.9404 37.5478C16.8861 37.4302 16.8416 37.3102 16.8064 37.1886C16.7664 37.2977 16.7322 37.3986 16.7025 37.4919C16.6104 37.9469 16.6534 38.3947 16.8306 38.845C17.5173 40.5912 20.0302 41.818 21.0513 42.2547V40.0992ZM21.0513 42.9415C20.347 42.6621 18.094 41.6811 16.8518 40.1257C17.0928 40.7237 17.4598 41.2726 17.9398 41.7408C18.7807 42.5605 19.8756 43.0427 21.0513 43.1175V42.9415ZM23.05 32.0251C23.0238 31.9868 22.998 31.9489 22.9715 31.9102C22.5757 31.3338 22.1491 30.737 21.6983 30.1284V32.5656C21.8643 32.5999 22.0979 32.642 22.3416 32.666C22.9576 32.727 23.2026 32.6279 23.2465 32.5669C23.2711 32.5324 23.2761 32.3712 23.05 32.0251ZM23.9615 33.4094C23.8795 33.2798 23.7946 33.1471 23.7066 33.0112C23.5077 33.2152 23.1752 33.3163 22.699 33.3163C22.5666 33.3163 22.4231 33.3085 22.2683 33.2929C22.0603 33.2722 21.8616 33.2401 21.6983 33.2094V35.2014C22.4353 35.2571 23.8174 35.238 24.178 34.667C24.3831 34.3423 24.215 33.8548 23.9615 33.4094ZM24.7809 34.9061C24.7649 34.9373 24.7476 34.9683 24.7286 34.9983C24.4132 35.4972 23.7313 35.7809 22.7013 35.8417C22.5552 35.8504 22.4126 35.854 22.2784 35.854C22.0566 35.854 21.8568 35.8444 21.6983 35.8335V38.3486C22.4818 38.1493 24.2447 37.5781 24.7659 36.3773C24.9556 35.9392 24.9602 35.4471 24.7809 34.9061ZM25.5588 36.2688C25.5423 36.2339 25.5259 36.1985 25.5088 36.1624C25.4754 36.3201 25.4263 36.4742 25.361 36.6245C24.6816 38.1878 22.4718 38.8225 21.6983 39.0002V41.1499C22.6712 40.7175 24.9709 39.5421 25.5643 37.8781C25.7545 37.3445 25.7534 36.8133 25.5588 36.2688ZM26.1914 38.0384C26.1859 38.0544 26.1807 38.0705 26.175 38.0865C25.4263 40.1834 22.5143 41.506 21.6983 41.8407V43.1175C22.8742 43.0427 23.9693 42.5607 24.8102 41.7408C25.7276 40.8462 26.233 39.6565 26.233 38.3914C26.233 38.3333 26.2266 38.2197 26.1914 38.0384Z" fill="white"/>
</svg>
