<?xml version="1.0" encoding="UTF-8" standalone="no"?>
<svg
   width="211"
   height="45"
   viewBox="0 0 211 45"
   fill="none"
   version="1.1"
   id="svg4"
   sodipodi:docname="Vector(3).svg"
   inkscape:version="1.1.2 (b8e25be833, 2022-02-05)"
   xmlns:inkscape="http://www.inkscape.org/namespaces/inkscape"
   xmlns:sodipodi="http://sodipodi.sourceforge.net/DTD/sodipodi-0.dtd"
   xmlns="http://www.w3.org/2000/svg"
   xmlns:svg="http://www.w3.org/2000/svg">
  <defs
     id="defs8" />
  <sodipodi:namedview
     id="namedview6"
     pagecolor="#ffffff"
     bordercolor="#666666"
     borderopacity="1.0"
     inkscape:pageshadow="2"
     inkscape:pageopacity="0.0"
     inkscape:pagecheckerboard="true"
     showgrid="false"
     inkscape:zoom="5.3175355"
     inkscape:cx="105.5"
     inkscape:cy="22.566845"
     inkscape:window-width="3440"
     inkscape:window-height="1377"
     inkscape:window-x="-8"
     inkscape:window-y="-8"
     inkscape:window-maximized="1"
     inkscape:current-layer="svg4" />
  <path
     fill-rule="evenodd"
     clip-rule="evenodd"
     d="M208.701 23.9687H203.657L202.195 10.9184V2.4235H210.162V10.9184L208.701 23.9687ZM206.014 27.6706C207.208 27.6706 208.182 28.0503 208.937 28.8093C209.691 29.5686 210.068 30.5498 210.068 31.7519C210.068 32.9543 209.691 33.9427 208.937 34.7178C208.182 35.4934 207.208 35.8803 206.014 35.8803C204.851 35.8803 203.892 35.4934 203.138 34.7178C202.384 33.9427 202.007 32.9543 202.007 31.7519C202.007 30.5498 202.376 29.5686 203.114 28.8093C203.853 28.0503 204.819 27.6706 206.014 27.6706ZM193.324 34.1721C191.548 35.2478 189.497 35.7854 187.172 35.7854C185.569 35.7854 184.115 35.4772 182.811 34.86C181.507 34.2432 180.399 33.3498 179.488 32.1788V44.7076H171.096V9.82656H179.488V13.1488C181.342 10.7447 183.84 9.5418 186.983 9.5418C189.34 9.5418 191.415 10.0879 193.206 11.1793C194.997 12.2707 196.388 13.8214 197.378 15.8301C198.368 17.8396 198.863 20.1569 198.863 22.7824C198.863 25.3768 198.384 27.6549 197.425 29.6163C196.466 31.5782 195.099 33.0969 193.324 34.1721ZM188.892 17.9656C187.871 16.7793 186.543 16.1859 184.909 16.1859C183.306 16.1859 182.002 16.7793 180.996 17.9656C179.99 19.1519 179.488 20.6945 179.488 22.5925C179.488 24.491 179.99 26.0259 180.996 27.196C182.002 28.3666 183.306 28.9519 184.909 28.9519C186.543 28.9519 187.871 28.3666 188.892 27.196C189.914 26.0259 190.425 24.491 190.425 22.5925C190.425 20.6945 189.914 19.1519 188.892 17.9656ZM159.978 34.1483C157.872 35.2397 155.436 35.7854 152.671 35.7854C149.905 35.7854 147.469 35.2397 145.364 34.1483C143.258 33.0569 141.631 31.5224 140.485 29.5448C139.337 27.568 138.764 25.2665 138.764 22.6402C138.764 20.0462 139.337 17.76 140.485 15.7824C141.631 13.8056 143.258 12.2707 145.364 11.1793C147.469 10.0879 149.905 9.5418 152.671 9.5418C155.436 9.5418 157.872 10.0879 159.978 11.1793C162.084 12.2707 163.718 13.8056 164.881 15.7824C166.044 17.76 166.625 20.0462 166.625 22.6402C166.625 25.2665 166.044 27.568 164.881 29.5448C163.718 31.5224 162.084 33.0569 159.978 34.1483ZM156.655 18.1316C155.633 16.9615 154.305 16.3758 152.671 16.3758C151.037 16.3758 149.717 16.9615 148.711 18.1316C147.705 19.3026 147.202 20.8367 147.202 22.7351C147.202 24.665 147.705 26.2157 148.711 27.3859C149.717 28.5564 151.037 29.1417 152.671 29.1417C154.337 29.1417 155.672 28.5564 156.678 27.3859C157.684 26.2157 158.187 24.665 158.187 22.7351C158.187 20.8367 157.676 19.3026 156.655 18.1316ZM131.055 18.5824C129.829 19.5158 129.121 20.7894 128.933 22.4027V35.5006H120.541V9.82656H128.933V14.0976C129.813 12.6112 130.952 11.4722 132.351 10.6809C133.749 9.89041 135.344 9.49455 137.136 9.49455V17.2301C136.853 17.199 136.429 17.1824 135.863 17.1824C133.883 17.1824 132.28 17.6498 131.055 18.5824ZM107.865 33.4128C105.146 34.8051 102.026 35.5006 98.507 35.5006H84.5996V2.23365H98.8368C102.294 2.23365 105.35 2.93003 108.006 4.32194C110.662 5.71427 112.728 7.66762 114.206 10.1828C115.683 12.6981 116.421 15.5853 116.421 18.8433C116.421 22.1026 115.675 24.9975 114.182 27.528C112.689 30.0594 110.583 32.0209 107.865 33.4128ZM106.451 13.9082C105.68 12.4533 104.619 11.3215 103.268 10.5149C101.917 9.70823 100.376 9.30471 98.6482 9.30471H93.2269V28.4773H99.0728C100.738 28.4773 102.215 28.0818 103.504 27.2909C104.793 26.5005 105.798 25.3768 106.521 23.9214C107.244 22.4665 107.605 20.8056 107.605 18.9382C107.605 17.0402 107.22 15.3635 106.451 13.9082ZM72.9971 23.9687L71.5358 10.9184V2.4235H79.503V10.9184L78.0417 23.9687H72.9971ZM75.3545 27.6706C76.5486 27.6706 77.5228 28.0503 78.2772 28.8093C79.0315 29.5686 79.4087 30.5498 79.4087 31.7519C79.4087 32.9543 79.0315 33.9427 78.2772 34.7178C77.5228 35.4934 76.5486 35.8803 75.3545 35.8803C74.1912 35.8803 73.2331 35.4934 72.4787 34.7178C71.7243 33.9427 71.3472 32.9543 71.3472 31.7519C71.3472 30.5498 71.7163 29.5686 72.455 28.8093C73.1933 28.0503 74.1595 27.6706 75.3545 27.6706ZM58.1624 21.7382C58.1624 20.2833 57.7772 19.1366 57.0076 18.2976C56.2368 17.4599 55.1763 17.0402 53.8253 17.0402C52.2848 17.0721 51.0675 17.6178 50.1715 18.6773C49.2759 19.7376 48.8281 21.1214 48.8281 22.83V35.5006H40.4367V0.287964H48.8281V14.0027C49.7393 12.5163 50.9098 11.393 52.3402 10.6336C53.7699 9.87424 55.4118 9.49455 57.2668 9.49455C60.0952 9.49455 62.3499 10.3808 64.0319 12.1519C65.7127 13.9244 66.5538 16.3128 66.5538 19.3179V35.5006H58.1624V21.7382ZM27.0126 33.8397C24.2937 35.3585 21.253 36.1178 17.8906 36.1178C14.5272 36.1178 11.4865 35.3665 8.7685 33.8635C6.0496 32.3614 3.91253 30.2889 2.35688 27.6468C0.80123 25.0056 0.0231934 22.0549 0.0231934 18.7961C0.0231934 15.5691 0.80123 12.6585 2.35688 10.0641C3.91253 7.47011 6.0496 5.4295 8.7685 3.94225C11.4865 2.45542 14.5272 1.71179 17.8906 1.71179C21.253 1.71179 24.2937 2.45542 27.0126 3.94225C29.7307 5.4295 31.8686 7.47011 33.4242 10.0641C34.9799 12.6585 35.7579 15.5691 35.7579 18.7961C35.7579 22.0549 34.9799 24.9975 33.4242 27.623C31.8686 30.2493 29.7307 32.3214 27.0126 33.8397ZM25.7162 13.8844C24.9305 12.3818 23.8539 11.2031 22.4869 10.3488C21.1198 9.49455 19.6187 9.06761 17.9848 9.06761C16.3501 9.06761 14.8338 9.49455 13.4354 10.3488C12.0367 11.2031 10.9288 12.3818 10.1119 13.8844C9.29409 15.3874 8.88605 17.0402 8.88605 18.8433C8.88605 20.6787 9.30255 22.3478 10.1356 23.8503C10.9677 25.3533 12.0756 26.5397 13.4591 27.4093C14.8418 28.2802 16.3501 28.7143 17.9848 28.7143C19.6187 28.7143 21.1198 28.2802 22.4869 27.4093C23.8539 26.5397 24.9305 25.3533 25.7162 23.8503C26.5014 22.3478 26.8951 20.6787 26.8951 18.8433C26.8951 17.0402 26.5014 15.3874 25.7162 13.8844Z"
     fill="white"
     id="path2" />
</svg>
