<svg width="188" height="61" viewBox="0 0 188 61" fill="none" xmlns="http://www.w3.org/2000/svg">
<path fill-rule="evenodd" clip-rule="evenodd" d="M167.145 35.8609H164.192L163.337 28.2223V23.25H168V28.2223L167.145 35.8609ZM165.572 38.0278C166.271 38.0278 166.841 38.25 167.282 38.6943C167.724 39.1387 167.945 39.713 167.945 40.4166C167.945 41.1205 167.724 41.699 167.282 42.1527C166.841 42.6067 166.271 42.8331 165.572 42.8331C164.891 42.8331 164.33 42.6067 163.888 42.1527C163.447 41.699 163.226 41.1205 163.226 40.4166C163.226 39.713 163.442 39.1387 163.875 38.6943C164.307 38.25 164.872 38.0278 165.572 38.0278ZM158.144 41.8333C157.104 42.4629 155.904 42.7776 154.543 42.7776C153.605 42.7776 152.754 42.5972 151.991 42.2359C151.227 41.8749 150.579 41.3519 150.045 40.6665V48H145.133V27.5832H150.045V29.5278C151.13 28.1206 152.593 27.4165 154.433 27.4165C155.812 27.4165 157.026 27.7362 158.075 28.375C159.124 29.0138 159.938 29.9215 160.517 31.0972C161.097 32.2734 161.386 33.6298 161.386 35.1666C161.386 36.6851 161.106 38.0186 160.545 39.1667C159.983 40.315 159.183 41.2039 158.144 41.8333ZM155.55 32.3472C154.952 31.6528 154.175 31.3055 153.218 31.3055C152.28 31.3055 151.517 31.6528 150.928 32.3472C150.339 33.0416 150.045 33.9445 150.045 35.0554C150.045 36.1666 150.339 37.0651 150.928 37.75C151.517 38.4351 152.28 38.7777 153.218 38.7777C154.175 38.7777 154.952 38.4351 155.55 37.75C156.148 37.0651 156.447 36.1666 156.447 35.0554C156.447 33.9445 156.148 33.0416 155.55 32.3472ZM138.626 41.8193C137.393 42.4582 135.967 42.7776 134.349 42.7776C132.73 42.7776 131.304 42.4582 130.072 41.8193C128.839 41.1805 127.887 40.2823 127.216 39.1248C126.544 37.9677 126.209 36.6206 126.209 35.0833C126.209 33.565 126.544 32.2268 127.216 31.0693C127.887 29.9122 128.839 29.0138 130.072 28.375C131.304 27.7362 132.73 27.4165 134.349 27.4165C135.967 27.4165 137.393 27.7362 138.626 28.375C139.858 29.0138 140.815 29.9122 141.496 31.0693C142.176 32.2268 142.517 33.565 142.517 35.0833C142.517 36.6206 142.176 37.9677 141.496 39.1248C140.815 40.2823 139.858 41.1805 138.626 41.8193ZM136.68 32.4443C136.083 31.7594 135.305 31.4166 134.349 31.4166C133.392 31.4166 132.619 31.7594 132.031 32.4443C131.442 33.1298 131.148 34.0277 131.148 35.1389C131.148 36.2685 131.442 37.1762 132.031 37.8611C132.619 38.5463 133.392 38.8889 134.349 38.8889C135.324 38.8889 136.105 38.5463 136.694 37.8611C137.283 37.1762 137.577 36.2685 137.577 35.1389C137.577 34.0277 137.278 33.1298 136.68 32.4443ZM121.696 32.7082C120.979 33.2546 120.565 34 120.454 34.9443V42.6109H115.543V27.5832H120.454V30.0832C120.969 29.2131 121.636 28.5464 122.455 28.0832C123.273 27.6206 124.207 27.3889 125.256 27.3889V31.9166C125.09 31.8985 124.842 31.8887 124.511 31.8887C123.352 31.8887 122.413 32.1623 121.696 32.7082ZM108.123 41.3888C106.531 42.2038 104.705 42.6109 102.645 42.6109H94.5048V23.1389H102.838C104.862 23.1389 106.65 23.5465 108.205 24.3612C109.76 25.1762 110.969 26.3195 111.834 27.7917C112.698 29.264 113.131 30.9539 113.131 32.8609C113.131 34.7687 112.694 36.4631 111.82 37.9443C110.946 39.426 109.714 40.5741 108.123 41.3888ZM107.295 29.9723C106.844 29.1207 106.223 28.4582 105.432 27.9861C104.641 27.5139 103.739 27.2777 102.728 27.2777H99.5546V38.4999H102.976C103.951 38.4999 104.815 38.2685 105.57 37.8055C106.324 37.3429 106.913 36.6851 107.336 35.8333C107.759 34.9817 107.971 34.0095 107.971 32.9165C107.971 31.8055 107.745 30.8241 107.295 29.9723ZM87.7135 35.8609L86.8582 28.2223V23.25H91.5216V28.2223L90.6663 35.8609H87.7135ZM89.0934 38.0278C89.7923 38.0278 90.3626 38.25 90.8041 38.6943C91.2457 39.1387 91.4664 39.713 91.4664 40.4166C91.4664 41.1205 91.2457 41.699 90.8041 42.1527C90.3626 42.6067 89.7923 42.8331 89.0934 42.8331C88.4125 42.8331 87.8517 42.6067 87.4101 42.1527C86.9686 41.699 86.7478 41.1205 86.7478 40.4166C86.7478 39.713 86.9639 39.1387 87.3962 38.6943C87.8284 38.25 88.3939 38.0278 89.0934 38.0278ZM79.0304 34.5554C79.0304 33.7038 78.8049 33.0326 78.3545 32.5415C77.9033 32.0512 77.2825 31.8055 76.4918 31.8055C75.5901 31.8242 74.8776 32.1436 74.3531 32.7638C73.8289 33.3844 73.5668 34.1944 73.5668 35.1945V42.6109H68.6551V22H73.5668V30.0276C74.1001 29.1576 74.7852 28.5001 75.6225 28.0556C76.4593 27.6111 77.4204 27.3889 78.5062 27.3889C80.1617 27.3889 81.4814 27.9076 82.466 28.9443C83.4498 29.9818 83.9421 31.3797 83.9421 33.1387V42.6109H79.0304V34.5554ZM60.7976 41.6387C59.2062 42.5277 57.4264 42.9722 55.4582 42.9722C53.4896 42.9722 51.7098 42.5324 50.1189 41.6527C48.5274 40.7734 47.2765 39.5603 46.366 38.0138C45.4554 36.4679 45 34.7408 45 32.8333C45 30.9445 45.4554 29.2408 46.366 27.7222C47.2765 26.2039 48.5274 25.0095 50.1189 24.1389C51.7098 23.2687 53.4896 22.8334 55.4582 22.8334C57.4264 22.8334 59.2062 23.2687 60.7976 24.1389C62.3886 25.0095 63.6399 26.2039 64.5505 27.7222C65.4611 29.2408 65.9165 30.9445 65.9165 32.8333C65.9165 34.7408 65.4611 36.4631 64.5505 37.9999C63.6399 39.5371 62.3886 40.75 60.7976 41.6387ZM60.0388 29.9583C59.5789 29.0788 58.9488 28.3889 58.1486 27.8889C57.3484 27.3889 56.4698 27.139 55.5134 27.139C54.5566 27.139 53.669 27.3889 52.8505 27.8889C52.0318 28.3889 51.3833 29.0788 50.9052 29.9583C50.4265 30.8381 50.1877 31.8055 50.1877 32.8609C50.1877 33.9353 50.4314 34.9122 50.919 35.7917C51.4061 36.6714 52.0546 37.3658 52.8644 37.8748C53.6737 38.3846 54.5566 38.6387 55.5134 38.6387C56.4698 38.6387 57.3484 38.3846 58.1486 37.8748C58.9488 37.3658 59.5789 36.6714 60.0388 35.7917C60.4984 34.9122 60.7288 33.9353 60.7288 32.8609C60.7288 31.8055 60.4984 30.8381 60.0388 29.9583Z" fill="#2A4447"/>
<path fill-rule="evenodd" clip-rule="evenodd" d="M34.0771 44.6672C31.9993 46.6931 29.237 47.8088 26.2989 47.8088C23.3606 47.8088 20.5984 46.6931 18.5206 44.6672C16.443 42.6416 15.2988 39.948 15.2988 37.0832C15.2988 35.7232 15.8711 33.8933 17 31.6438C17.8918 29.8663 19.134 27.8163 20.6918 25.5506C23.3391 21.7006 26.0221 18.5129 26.0489 18.481L26.2987 18.1851L26.5486 18.481C26.5755 18.5129 29.2585 21.7006 31.9057 25.5506C33.4637 27.8163 34.7058 29.8663 35.5976 31.6438C36.7265 33.8933 37.2988 35.7232 37.2988 37.0832C37.2988 39.948 36.1546 42.6416 34.0771 44.6672ZM31.3712 25.9062C29.2092 22.7615 27.0231 20.0615 26.2987 19.1827C25.5745 20.0615 23.3885 22.7615 21.2264 25.9062C17.7719 30.931 15.9458 34.7959 15.9458 37.0832C15.9458 42.6494 20.5901 47.1779 26.2989 47.1779C32.0075 47.1779 36.6518 42.6494 36.6518 37.0832C36.6518 34.7959 34.8257 30.931 31.3712 25.9062ZM30.1914 42.775C29.1516 43.7889 27.7692 44.3472 26.2989 44.3472C24.8284 44.3472 23.446 43.7889 22.4062 42.775C21.3664 41.7612 20.7939 40.4132 20.7939 38.9795C20.7939 38.7795 20.8331 38.431 21.0097 37.878C21.0764 37.587 21.1864 37.2955 21.3399 37.0042C21.5048 36.6187 21.7181 36.1722 21.9926 35.6571C22.0668 35.5025 22.1527 35.346 22.2498 35.1874C22.3774 34.9603 22.5158 34.7211 22.6663 34.4694C22.6807 34.4452 22.6953 34.4207 22.7102 34.3959C22.8897 34.0977 23.0854 33.7824 23.2994 33.4488C23.3417 33.3755 23.3896 33.3005 23.4449 33.2232L23.4451 33.2234C23.6719 32.8745 23.9174 32.5068 24.1842 32.1188C24.7487 31.2978 25.3729 30.4379 26.039 29.5638L26.2985 29.2231L26.5584 29.5638C27.2326 30.4486 27.8627 31.3167 28.4306 32.144C28.4617 32.1872 28.5049 32.2478 28.5514 32.3206C28.768 32.6384 28.9698 32.9419 29.1587 33.2328C29.2608 33.3782 29.3512 33.5194 29.4305 33.6564C29.5179 33.7944 29.6022 33.9294 29.6833 34.061C29.8288 34.2732 29.9544 34.4819 30.0601 34.6868C30.3314 35.1487 30.561 35.5664 30.7555 35.9446C30.8807 36.153 30.9832 36.3617 31.0634 36.5706C31.6994 37.9317 31.8038 38.6535 31.8038 38.9795C31.8038 40.4132 31.2312 41.7612 30.1914 42.775ZM25.9751 30.7167C25.5325 31.3147 25.1123 31.9019 24.7215 32.4703C24.3981 32.9406 24.107 33.38 23.8439 33.7906C23.7352 33.988 23.7249 34.1102 23.7607 34.163C23.842 34.2824 24.2262 34.4035 25.0417 34.3516C25.4044 34.3287 25.7508 34.2783 25.9751 34.2405V30.7167ZM25.9751 34.8803C25.7392 34.9175 25.4201 34.9598 25.0837 34.9812C24.9392 34.9905 24.8026 34.995 24.6743 34.995C24.0174 34.995 23.5714 34.8745 23.3211 34.63C23.2715 34.7122 23.2229 34.7932 23.1759 34.8727C22.831 35.4869 22.7623 35.9568 22.9721 36.2713C23.2101 36.6278 23.8539 36.8532 24.7846 36.9057C25.2566 36.9322 25.7008 36.9093 25.9751 36.8873V34.8803ZM25.9751 37.5206C25.7803 37.5353 25.5213 37.5489 25.2304 37.5489C25.0799 37.5489 24.9207 37.5451 24.7576 37.5362C23.5778 37.4712 22.7947 37.1616 22.4302 36.616C22.4058 36.5795 22.3834 36.5421 22.3631 36.504C22.2324 37.0019 22.2621 37.4609 22.4537 37.8756C23.0635 39.1955 25.1175 39.8262 25.9751 40.0369V37.5206ZM25.9751 40.6874C25.1445 40.5012 22.6394 39.8115 21.8643 38.1359C21.8099 38.0183 21.7654 37.8983 21.7302 37.7767C21.6902 37.8858 21.656 37.9867 21.6263 38.08C21.5343 38.535 21.5772 38.9829 21.7544 39.4331C22.4412 41.1793 24.954 42.4062 25.9751 42.8429V40.6874ZM25.9751 43.5297C25.2708 43.2502 23.0178 42.2692 21.7757 40.7139C22.0166 41.3118 22.3836 41.8608 22.8637 42.3289C23.7046 43.1486 24.7994 43.6308 25.9751 43.7056V43.5297ZM27.9739 32.6132C27.9476 32.5749 27.9218 32.5371 27.8953 32.4983C27.4995 31.922 27.0729 31.3251 26.6221 30.7165V33.1537C26.7881 33.188 27.0218 33.2301 27.2654 33.2542C27.8814 33.3152 28.1264 33.2161 28.1703 33.1551C28.1949 33.1205 28.2 32.9593 27.9739 32.6132ZM28.8853 33.9975C28.8033 33.8679 28.7184 33.7352 28.6305 33.5993C28.4315 33.8033 28.099 33.9044 27.6229 33.9044C27.4904 33.9044 27.347 33.8966 27.1921 33.8811C26.9841 33.8603 26.7854 33.8283 26.6221 33.7975V35.7896C27.3591 35.8453 28.7412 35.8261 29.1018 35.2551C29.3069 34.9304 29.1388 34.4429 28.8853 33.9975ZM29.7048 35.4943C29.6888 35.5255 29.6714 35.5564 29.6525 35.5865C29.3371 36.0853 28.6551 36.369 27.6251 36.4298C27.479 36.4385 27.3365 36.4421 27.2022 36.4421C26.9804 36.4421 26.7806 36.4325 26.6221 36.4216V38.9368C27.4057 38.7374 29.1685 38.1662 29.6897 36.9654C29.8795 36.5274 29.884 36.0352 29.7048 35.4943ZM30.4826 36.857C30.4662 36.822 30.4497 36.7866 30.4326 36.7505C30.3993 36.9082 30.3502 37.0623 30.2848 37.2126C29.6054 38.776 27.3956 39.4107 26.6221 39.5884V41.7381C27.595 41.3056 29.8948 40.1302 30.4881 38.4662C30.6783 37.9326 30.6772 37.4015 30.4826 36.857ZM31.1152 38.6265C31.1098 38.6426 31.1045 38.6586 31.0988 38.6746C30.3502 40.7716 27.4381 42.0942 26.6221 42.4289V43.7056C27.798 43.6308 28.8931 43.1489 29.734 42.3289C30.6514 41.4343 31.1568 40.2447 31.1568 38.9795C31.1568 38.9214 31.1504 38.8078 31.1152 38.6265Z" fill="#2A4447"/>
</svg>
