<svg width="34" height="46" viewBox="0 0 34 46" fill="none" xmlns="http://www.w3.org/2000/svg">
<path d="M12.6176 45C12.4412 45 12.2647 45 12.0882 45C11.8676 44.7363 11.6118 44.4902 11.4441 44.2002C10.8529 43.1719 10.2794 42.1348 9.72353 41.0889C9.5647 40.7988 9.42353 40.7461 9.10588 40.834C7.87941 41.2031 6.65294 41.5371 5.41765 41.8711C4.87941 42.0205 4.40294 41.8623 4.27941 41.4141C4.2 41.1328 4.24412 40.7725 4.35882 40.4912C5.78824 37.0459 7.23529 33.6094 8.68235 30.1728C8.80588 29.8828 8.92059 29.584 9.06176 29.25C8.42647 29.1885 7.84412 29.127 7.26176 29.083C5.51471 28.9512 4.14706 27.791 3.83824 26.1211C3.72353 25.5059 3.69706 24.873 3.63529 24.249C3.36176 21.498 3.63529 22.1045 1.94118 20.0391C1.15588 19.0986 0.255882 18.2373 0 16.9629C0 16.585 0 16.1982 0 15.8203C0.247059 14.792 0.891177 14.001 1.56176 13.2275C2.01176 12.709 2.48824 12.1992 2.86765 11.6279C3.14118 11.2148 3.36176 10.7227 3.44118 10.2393C3.60882 9.17578 3.67941 8.08594 3.78529 7.01367C3.96176 5.29981 5.31176 3.94629 7.03235 3.7793C8.14412 3.67383 9.25588 3.58594 10.3588 3.42773C10.7647 3.36621 11.1706 3.17285 11.5235 2.9707C11.8588 2.77734 12.1412 2.47852 12.45 2.23242C13.5441 1.39746 14.4706 0.325195 15.8824 0C16.2618 0 16.65 0 17.0294 0C18.0353 0.219727 18.8294 0.808594 19.5794 1.47656C20.1176 1.95117 20.6912 2.39063 21.2471 2.84766C21.6618 3.19043 22.1294 3.41016 22.6765 3.4541C23.7618 3.55078 24.8382 3.66504 25.9235 3.77051C27.5471 3.92871 28.8618 5.1416 29.1265 6.74121C29.2059 7.21582 29.2412 7.69922 29.2941 8.18262C29.6559 11.4873 29.1971 10.5645 31.2882 13.0781C32.1 14.0537 32.9206 15.0029 33.0088 16.3477C33.0088 16.374 33.0088 16.4092 33.0088 16.4355C32.9382 17.7275 32.2235 18.6943 31.4029 19.6172C30.9441 20.127 30.4765 20.6455 30.0971 21.2168C29.8235 21.6299 29.5941 22.1221 29.5147 22.6055C29.3559 23.5371 29.2941 24.4951 29.2235 25.4443C29.0559 27.6064 27.7412 28.9336 25.5794 29.1094C25.0324 29.1533 24.4853 29.2236 23.9029 29.2764C24 29.5137 24.0706 29.6895 24.1412 29.8652C25.6324 33.4248 27.1235 36.9844 28.6235 40.5439C28.7912 40.9395 28.8529 41.3086 28.5529 41.6514C28.2529 41.9941 27.8735 41.9941 27.4588 41.8711C26.25 41.5195 25.0235 41.2031 23.8147 40.8428C23.5059 40.7549 23.3735 40.8252 23.2324 41.0977C22.6588 42.1699 22.0765 43.2334 21.4676 44.2881C21.3088 44.5693 21.0353 44.7803 20.8147 45.0176C20.6382 45.0176 20.4618 45.0176 20.2853 45.0176C20.0647 44.7363 19.7824 44.4902 19.6412 44.1826C19.2529 43.3652 18.9265 42.5127 18.5735 41.6777C18.1412 40.6406 17.7 39.6035 17.2676 38.5576C17.0471 38.0303 17.2853 37.5732 17.7706 37.5381C18.1765 37.5117 18.3794 37.7578 18.5206 38.0918C19.1118 39.5068 19.7029 40.9219 20.3029 42.3369C20.3912 42.5566 20.4971 42.7676 20.6206 43.0664C21.15 42.1172 21.6265 41.2471 22.1118 40.3857C22.6147 39.4717 23.1088 39.2695 24.1059 39.5508C25.0765 39.8232 26.0471 40.0869 27.0794 40.377C26.9912 40.1572 26.9382 39.999 26.8676 39.8408C25.5176 36.6328 24.1765 33.4248 22.8265 30.2168C22.4471 29.3203 22.2441 29.2676 21.4235 29.874C21.2735 29.9883 21.1235 30.1113 20.9824 30.2344C20.2059 30.8672 19.4294 31.4824 18.6706 32.1328C18.4412 32.335 18.2118 32.5898 18.0971 32.8623C16.4912 36.6416 14.9118 40.4385 13.2971 44.2178C13.1647 44.499 12.8471 44.7363 12.6176 45ZM31.6059 16.3916C31.6235 15.8027 31.3853 15.3018 31.0059 14.8447C30.3353 14.0449 29.6824 13.2363 29.0118 12.4365C28.4735 11.7949 28.2088 11.0566 28.1382 10.2305C28.05 9.14941 27.9529 8.06836 27.8029 6.99609C27.6529 5.92383 26.8147 5.18555 25.7471 5.08887C24.7853 5.00098 23.8147 4.88672 22.8529 4.81641C21.8294 4.74609 20.9559 4.38574 20.1794 3.70898C19.4735 3.08496 18.7412 2.50488 18.0088 1.91602C17.0294 1.125 15.9176 1.125 14.9471 1.91602C14.1353 2.5752 13.3324 3.23438 12.5294 3.89355C11.9382 4.38574 11.2676 4.69336 10.5 4.76367C9.38824 4.86914 8.27647 4.9834 7.16471 5.08887C6.08823 5.20312 5.23235 6.04688 5.11765 7.11914C5.02059 8.07715 4.91471 9.04395 4.84412 10.002C4.77353 11.0127 4.44706 11.9004 3.75882 12.6738C3.13235 13.377 2.55 14.1152 1.95882 14.8359C1.11176 15.8643 1.12059 16.9629 1.96765 17.9912C2.62941 18.791 3.29118 19.5996 3.96176 20.3994C4.42941 20.9707 4.71176 21.6123 4.79118 22.3506C4.89706 23.4404 5.01176 24.5391 5.11765 25.6289C5.22353 26.7275 5.95588 27.5449 7.05882 27.7031C7.87059 27.8262 8.69118 27.9141 9.51176 27.9404C10.8882 27.9932 12.0882 28.3975 13.1029 29.373C13.6588 29.9092 14.2941 30.3662 14.9029 30.8584C15.9353 31.7021 17.0294 31.7109 18.0706 30.8672C18.8471 30.2432 19.6235 29.6104 20.3824 28.9688C21.0706 28.3887 21.8559 28.0898 22.7471 28.0195C23.7265 27.9492 24.7059 27.8525 25.6853 27.7383C26.9559 27.5977 27.7324 26.8154 27.8735 25.541C27.9529 24.8115 28.05 24.082 28.0676 23.3525C28.1118 21.9639 28.5353 20.7598 29.5235 19.7402C30.0971 19.1514 30.5824 18.4834 31.1029 17.8506C31.4382 17.4463 31.6235 16.9541 31.6059 16.3916ZM12.3353 43.0664C13.7824 39.6299 15.1941 36.2637 16.6147 32.8711C16.4912 32.8535 16.4206 32.8271 16.3588 32.8271C15.4235 32.8008 14.6382 32.4141 13.9324 31.8164C13.2088 31.2012 12.4676 30.5947 11.7176 30.0059C11.4794 29.8213 11.2059 29.6807 10.9324 29.5312C10.6059 29.3555 10.4382 29.4434 10.2794 29.8037C8.87647 33.1963 7.44706 36.5713 6.02647 39.9551C5.98235 40.0693 5.94706 40.1836 5.89412 40.3594C6.9 40.0781 7.84412 39.8145 8.78823 39.5508C9.87353 39.252 10.3235 39.4365 10.8794 40.4297C11.3471 41.2822 11.8147 42.1348 12.3353 43.0664Z" fill="#258F67"/>
<path d="M26.9381 16.4181C26.9381 22.5704 21.6087 27.378 15.4587 26.7892C10.8705 26.3497 6.97931 22.7989 6.18519 18.3253C5.3646 13.6583 7.68519 9.06162 11.8852 7.04013C11.9911 6.9874 12.097 6.93466 12.2028 6.89951C12.5646 6.77646 12.8999 6.89951 13.0587 7.2247C13.2175 7.5499 13.1117 7.88388 12.7764 8.08603C12.2822 8.37607 11.7617 8.62216 11.294 8.93857C8.19695 11.0479 6.73225 14.8712 7.59695 18.5362C8.45284 22.1485 11.5499 24.9171 15.2822 25.4093C21.0617 26.1651 26.047 21.4278 25.5705 15.6358C25.1646 10.6876 20.7175 6.93466 15.7499 7.35654C15.5999 7.36533 15.4587 7.38291 15.3087 7.38291C14.8675 7.3917 14.5764 7.1456 14.5587 6.75888C14.5411 6.38095 14.8058 6.10849 15.247 6.05576C16.4999 5.90634 17.744 5.98545 18.9617 6.28427C23.6558 7.44443 26.9381 11.6104 26.9381 16.4181Z" fill="#258F67"/>
<path d="M14.2412 17.2001C14.3912 16.9979 14.4706 16.8485 14.5853 16.7343C16.0765 15.2401 17.5677 13.746 19.0765 12.2606C19.95 11.3993 21.2118 11.3729 22.0324 12.1815C22.853 12.9901 22.8442 14.2645 21.9883 15.1259C19.9059 17.2089 17.8148 19.2919 15.7236 21.3661C14.8148 22.2626 13.6148 22.2626 12.7059 21.3749C11.7618 20.452 10.8265 19.5204 9.90005 18.58C9.04417 17.7099 9.02653 16.453 9.84711 15.6356C10.6589 14.827 11.903 14.8358 12.7677 15.6708C13.2265 16.1366 13.6765 16.62 14.2412 17.2001ZM14.2148 20.7684C14.4353 20.6278 14.6648 20.5224 14.8324 20.3554C16.8795 18.3339 18.9089 16.3036 20.9471 14.2733C21 14.2206 21.053 14.1679 21.0971 14.1151C21.3618 13.7987 21.353 13.3856 21.0795 13.122C20.7971 12.8495 20.4177 12.8495 20.0912 13.1308C20.003 13.2099 19.9236 13.2977 19.8353 13.3768C18.1853 15.0204 16.5353 16.6727 14.8765 18.3163C14.3295 18.8612 14.0648 18.8524 13.5177 18.3075C12.9618 17.7626 12.4148 17.2089 11.8677 16.664C11.4883 16.2948 11.0824 16.2684 10.7824 16.5849C10.4912 16.8749 10.5089 17.2968 10.853 17.6395C11.7795 18.58 12.7148 19.5116 13.6589 20.4345C13.7912 20.5751 13.9853 20.6454 14.2148 20.7684Z" fill="#258F67"/>
</svg>
