<svg width="39" height="56" viewBox="0 0 39 56" fill="none" xmlns="http://www.w3.org/2000/svg">
<path d="M-0.000184942 32.5938C-0.000184942 21.7328 -0.000184942 10.8609 -0.000184942 0C1.67747 0 3.34423 0 5.01099 0C4.90205 0.0875 4.79311 0.175 4.68417 0.2625C4.29199 0.6125 4.20484 1.21406 4.4663 1.65156C4.71686 2.06719 5.22887 2.26406 5.68641 2.13281C6.20931 1.96875 6.5797 1.50937 6.42719 0.973437C6.32915 0.6125 5.99144 0.317188 5.77356 0C16.8526 0 27.9208 0 38.9998 0C38.9998 16.4062 38.9998 32.8125 38.9998 49.2188C38.9671 49.0984 38.9236 48.9781 38.9018 48.8578C38.7602 47.3047 38.2917 45.8719 37.4638 44.5484C36.516 43.0281 36.2219 41.3438 36.3417 39.5719C36.4289 38.2812 36.7666 37.0672 37.442 35.9516C37.7906 35.3719 37.6272 34.7375 37.1152 34.4203C36.5705 34.0813 35.9604 34.2453 35.5792 34.8469C35.4375 35.0766 35.285 35.3063 35.1761 35.5578C33.6292 39.0141 33.7272 42.3937 35.6118 45.7078C37.1588 48.4312 37.1805 51.2203 35.797 54.0094C35.3068 54.9937 35.3286 55.3219 36.1565 56C34.054 56 31.9406 56 29.8381 56C30.5244 55.5406 30.8403 54.8188 31.1127 54.0969C32.3546 50.7609 32.1367 47.5672 30.3501 44.4391C28.7814 41.6828 28.8032 38.8281 30.3392 36.0609C31.1671 34.5625 31.7336 33.0203 31.8535 31.325C32.006 29.1266 31.6356 27.0375 30.459 25.1453C30.2847 24.8719 29.947 24.6313 29.6311 24.5219C29.2062 24.3797 28.8032 24.5875 28.5526 24.9812C28.2694 25.4297 28.3892 25.8672 28.6289 26.3156C30.0886 29.0828 30.1431 31.8828 28.618 34.6172C26.5046 38.3906 26.5046 42.0984 28.618 45.8719C30.1322 48.5844 30.0995 51.3734 28.6616 54.1187C28.204 55.0047 28.3129 55.4969 29.1736 56.0109C27.0275 56.0109 24.8923 56.0109 22.7462 56.0109C23.0076 55.7156 23.3562 55.475 23.5088 55.1359C23.9009 54.2609 24.3258 53.375 24.5328 52.4562C25.1428 49.7547 24.8378 47.1406 23.3889 44.7234C23.2255 44.45 22.8769 44.2094 22.561 44.1C22.1361 43.9578 21.7331 44.1656 21.4825 44.5484C21.1884 44.9969 21.3082 45.4344 21.5479 45.8828C23.0076 48.6172 23.0076 51.3734 21.5914 54.1297C21.1339 55.0156 21.2319 55.4969 22.0926 56.0219C14.7174 56.0219 7.35317 56.0219 -0.0219727 56.0219C-0.0219727 48.5516 -0.0219727 41.0703 -0.0219727 33.6C0.0216028 33.7531 0.0542843 33.9172 0.0978598 34.0703C0.52272 35.7875 1.55764 36.9578 3.26797 37.4172C5.1744 37.9203 6.72132 37.2641 8.07216 35.8531C10.1747 33.6656 12.5169 33.3375 15.175 34.7594C15.8068 35.0984 16.4277 34.9563 16.7437 34.4203C17.0705 33.8625 16.8853 33.2281 16.2317 32.8563C14.0965 31.6203 11.8632 31.4016 9.53194 32.2328C8.19199 32.7141 7.15708 33.6 6.19842 34.6172C5.67551 35.1859 5.03278 35.4813 4.25931 35.4047C3.33334 35.3063 2.66881 34.8141 2.3311 33.9391C1.99339 33.0531 2.16769 32.2438 2.81043 31.5656C3.46406 30.8766 4.15037 30.2313 4.79311 29.5422C5.22887 29.0828 5.20708 28.4266 4.80401 28.0109C4.41183 27.6063 3.7473 27.5297 3.33334 27.9453C2.00428 29.3016 0.326631 30.4609 -0.000184942 32.5938ZM24.8051 32.5172C24.7724 32.2547 24.7507 31.7734 24.6744 31.3141C24.304 29.1266 23.1384 27.4422 21.4716 26.0203C17.7895 22.8594 14.14 19.6656 10.5015 16.4391C8.58417 14.7438 7.22244 12.6328 6.55792 10.15C6.19842 8.82656 6.08948 7.4375 5.90429 6.07031C5.81713 5.43594 5.41406 4.9875 4.83669 4.97656C4.23753 4.96562 3.76909 5.43594 3.72551 6.09219C3.71462 6.28906 3.72551 6.49688 3.73641 6.69375C3.99786 11.3859 5.8716 15.3016 9.39032 18.3969C13.0615 21.6234 16.7655 24.8281 20.4476 28.0437C22.3104 29.6734 22.9532 31.7297 22.3758 34.1031C21.7875 36.5203 20.2297 38.0516 17.7895 38.6203C15.5998 39.1344 13.3993 39.6047 11.2205 40.1516C8.38808 40.8734 6.64507 43.6406 7.17887 46.4953C7.30959 47.2172 7.8216 47.6 8.48613 47.4797C9.09619 47.3703 9.4339 46.8125 9.31406 46.1016C9.01993 44.2422 10.0984 42.6344 11.9177 42.2188C14.1291 41.7047 16.3406 41.2125 18.5412 40.6875C22.147 39.8344 24.8051 36.4437 24.8051 32.5172Z" fill="white"/>
<path d="M29.1952 56.0001C28.3236 55.4969 28.2147 54.9938 28.6831 54.1079C30.1102 51.3516 30.1538 48.5626 28.6396 45.861C26.5262 42.0876 26.5371 38.3797 28.6396 34.6063C30.1647 31.8829 30.1102 29.0719 28.6505 26.3047C28.4108 25.8563 28.291 25.4188 28.5742 24.9704C28.8248 24.5766 29.2169 24.3688 29.6527 24.511C29.9686 24.6204 30.3063 24.861 30.4806 25.1344C31.6463 27.0266 32.0275 29.1157 31.875 31.3141C31.7552 33.0094 31.1887 34.5516 30.3608 36.0501C28.8139 38.8172 28.803 41.6829 30.3717 44.4282C32.1474 47.5563 32.3762 50.7501 31.1343 54.086C30.8619 54.8079 30.546 55.5298 29.8597 55.9891C29.6309 56.0001 29.413 56.0001 29.1952 56.0001Z" fill="#258F67"/>
<path d="M0 32.5937C0.326816 30.4609 2.00447 29.3015 3.3662 27.9234C3.78017 27.5078 4.44469 27.5734 4.83687 27.989C5.23994 28.4047 5.25084 29.0609 4.82598 29.5203C4.18324 30.2094 3.48603 30.8547 2.8433 31.5437C2.20056 32.2219 2.02626 33.0422 2.36397 33.9172C2.70168 34.7922 3.35531 35.2844 4.29218 35.3828C5.06564 35.4594 5.70838 35.164 6.23128 34.5953C7.17905 33.5781 8.22486 32.6812 9.5648 32.2109C11.8961 31.3797 14.1293 31.5984 16.2645 32.8344C16.9073 33.2062 17.1033 33.8406 16.7765 34.3984C16.4606 34.9344 15.8397 35.0765 15.2078 34.7375C12.5388 33.3265 10.2075 33.6547 8.10503 35.8312C6.75419 37.2312 5.20726 37.8984 3.30084 37.3953C1.57961 36.9359 0.544693 35.7547 0.119832 34.0484C0.076257 33.8953 0.0435754 33.7312 0 33.5781C0 33.25 0 32.9219 0 32.5937Z" fill="#258F67"/>
<path d="M36.1675 56C35.3396 55.3219 35.3178 54.9937 35.8081 54.0094C37.1916 51.2203 37.1698 48.4312 35.6229 45.7078C33.7382 42.3937 33.6402 39.0141 35.1871 35.5578C35.296 35.3062 35.4377 35.0766 35.5902 34.8469C35.9715 34.2453 36.5815 34.0812 37.1262 34.4203C37.6382 34.7375 37.8016 35.3719 37.453 35.9516C36.7776 37.0672 36.4399 38.2812 36.3527 39.5719C36.2329 41.3437 36.527 43.0172 37.4748 44.5484C38.3027 45.8719 38.7603 47.3047 38.9128 48.8578C38.9237 48.9781 38.9782 49.0984 39.0108 49.2187C39.0108 49.7656 39.0108 50.3125 39.0108 50.8594C38.9782 51.0125 38.9237 51.1656 38.9128 51.3297C38.7494 52.6969 38.3899 54.0094 37.66 55.1797C37.4639 55.4969 37.1153 55.7266 36.8321 56C36.6033 56 36.3854 56 36.1675 56Z" fill="#258F67"/>
<path d="M22.1144 56C21.2538 55.475 21.1558 54.9937 21.6133 54.1078C23.0404 51.3625 23.0295 48.5953 21.5698 45.8609C21.3301 45.4125 21.2103 44.975 21.5044 44.5266C21.7549 44.1437 22.158 43.9359 22.5829 44.0781C22.8988 44.1875 23.2365 44.4281 23.4108 44.7016C24.8597 47.1078 25.1538 49.7219 24.5547 52.4344C24.3477 53.3641 23.9228 54.25 23.5306 55.1141C23.3781 55.4531 23.0295 55.7047 22.7681 55.989C22.5502 56 22.3323 56 22.1144 56Z" fill="#258F67"/>
<path d="M36.8213 56C37.1045 55.7266 37.4422 55.4969 37.6492 55.1797C38.3791 54.0094 38.7386 52.6969 38.902 51.3297C38.9238 51.1766 38.9674 51.0234 39.0001 50.8594C39.0001 52.5766 39.0001 54.2828 39.0001 56C38.2702 56 37.5512 56 36.8213 56Z" fill="white"/>
<path d="M24.8053 32.5171C24.8053 36.4546 22.1472 39.8343 18.5414 40.6874C16.3408 41.2124 14.1293 41.7046 11.9179 42.2187C10.0986 42.6343 9.02012 44.2421 9.31425 46.1015C9.42319 46.8015 9.08548 47.3593 8.48632 47.4796C7.82179 47.5999 7.30978 47.2171 7.17906 46.4953C6.64526 43.6406 8.38828 40.8624 11.2207 40.1515C13.3995 39.6046 15.6 39.1343 17.7897 38.6203C20.2408 38.0515 21.7877 36.5203 22.376 34.1031C22.9534 31.7296 22.3106 29.6624 20.4478 28.0437C16.7657 24.8281 13.0726 21.6234 9.39051 18.3968C5.87179 15.3015 3.99805 11.3859 3.7366 6.69369C3.7257 6.49682 3.71481 6.28901 3.7257 6.09213C3.75839 5.43588 4.22682 4.96557 4.83688 4.97651C5.41425 4.98744 5.81732 5.43588 5.90448 6.07026C6.08967 7.43744 6.19861 8.8265 6.55811 10.1499C7.22263 12.6328 8.58436 14.7437 10.5017 16.439C14.1402 19.6546 17.7897 22.8484 21.4718 26.0203C23.1386 27.4421 24.2933 29.1374 24.6746 31.314C24.7508 31.7734 24.7835 32.2437 24.8053 32.5171Z" fill="#258F67"/>
</svg>
