<svg width="20" height="18" viewBox="0 0 20 18" fill="none" xmlns="http://www.w3.org/2000/svg">
<path d="M0 6.05655C0 5.92676 0 5.79305 0 5.66326C0.0585938 5.55315 0.117187 5.44696 0.179688 5.33684C1.09766 3.70865 2.01953 2.07653 2.93359 0.444409C3.05469 0.228104 3.19141 0.0589923 3.4375 0C7.80078 0 12.1602 0 16.5234 0C16.7383 0.0432611 16.8945 0.15338 17.0078 0.353954C18 2.12766 19 3.89349 20 5.66326C20 5.79305 20 5.92676 20 6.05655C19.9922 6.08014 19.9766 6.10374 19.9727 6.12734C19.832 7.13414 19.3164 7.87351 18.4219 8.34545C18.3047 8.40837 18.2773 8.47917 18.2773 8.60502C18.2812 11.3816 18.2812 14.1582 18.2812 16.9387C18.2812 17.3634 18.2031 17.4775 17.8125 17.619C12.6055 17.619 7.39453 17.619 2.1875 17.619C1.79688 17.4775 1.71875 17.3673 1.71875 16.9426C1.71875 14.1778 1.71875 11.4131 1.72266 8.64828C1.72266 8.4831 1.67969 8.39658 1.52734 8.31792C1.03516 8.06622 0.660156 7.68474 0.378906 7.201C0.171875 6.84311 0.0820312 6.45376 0 6.05655ZM4.43359 16.6083C4.43359 16.5061 4.43359 16.4235 4.43359 16.3369C4.43359 14.697 4.42969 13.0609 4.43359 11.4209C4.4375 10.3001 5.14062 9.59215 6.25 9.59215C6.66016 9.59215 7.07031 9.57249 7.48047 9.60002C7.74609 9.61969 8.03125 9.66295 8.26953 9.777C8.91797 10.0877 9.21484 10.6462 9.21875 11.3659C9.22266 13.0294 9.21875 14.693 9.21875 16.3605C9.21875 16.4392 9.21875 16.5139 9.21875 16.5926C11.9219 16.5926 14.6055 16.5926 17.2891 16.5926C17.2891 13.9419 17.2891 11.3147 17.2891 8.66401C16.7812 8.68367 16.3086 8.58928 15.8633 8.36905C15.4102 8.14488 15.0547 7.81452 14.7539 7.40157C14.1562 8.21567 13.375 8.66008 12.3828 8.66401C11.3828 8.66401 10.6055 8.21173 10.0039 7.40551C9.39844 8.21567 8.62109 8.66401 7.62891 8.66401C6.62891 8.66401 5.84766 8.21567 5.25 7.40551C4.61719 8.27466 3.76953 8.69154 2.71094 8.67187C2.71094 11.3305 2.71094 13.9655 2.71094 16.6122C3.28125 16.6083 3.83984 16.6083 4.43359 16.6083ZM1.44141 5.10874C7.16016 5.10874 12.8477 5.10874 18.5586 5.10874C18.5156 5.03008 18.4883 4.97502 18.457 4.91996C17.7539 3.67326 17.0469 2.43048 16.3477 1.17985C16.2773 1.054 16.2031 1.01074 16.0586 1.01074C12.0156 1.01467 7.97656 1.01467 3.93359 1.01074C3.78906 1.01074 3.71484 1.05793 3.64453 1.17985C2.94141 2.43442 2.23438 3.68506 1.52734 4.93963C1.50391 4.99075 1.48047 5.04188 1.44141 5.10874ZM8.23047 16.6004C8.23438 16.5533 8.24219 16.5179 8.24219 16.4785C8.24219 14.756 8.24609 13.0334 8.24219 11.3108C8.24219 10.8782 7.94922 10.5832 7.51953 10.5793C7.09766 10.5714 6.67578 10.5793 6.25 10.5793C5.6875 10.5793 5.42578 10.8389 5.42188 11.4052C5.42188 13.0688 5.42188 14.7324 5.42188 16.3959C5.42188 16.4628 5.42188 16.5336 5.42188 16.6004C6.37891 16.6004 7.29688 16.6004 8.23047 16.6004ZM4.71484 6.12734C3.47656 6.12734 2.25781 6.12734 1.03125 6.12734C1.19922 7.02795 1.94922 7.66114 2.84766 7.67294C3.75391 7.68474 4.52344 7.05548 4.71484 6.12734ZM9.44531 6.1234C8.22656 6.1234 7.01172 6.1234 5.79297 6.1234C5.88281 7.00042 6.77344 7.70833 7.71484 7.669C8.71484 7.62968 9.41797 6.77232 9.44531 6.1234ZM10.5586 6.1234C10.5977 6.80378 11.3359 7.6808 12.3945 7.67294C13.457 7.66507 14.1758 6.76839 14.2031 6.1234C12.9844 6.1234 11.7734 6.1234 10.5586 6.1234ZM18.9727 6.13127C17.7383 6.13127 16.5195 6.13127 15.3008 6.13127C15.3984 6.96503 16.1797 7.64148 17.0703 7.67294C17.9922 7.7044 18.8008 7.05548 18.9727 6.13127Z" fill="#214842"/>
<path d="M12.8477 14.4058C12.4258 14.4058 12 14.4097 11.5781 14.4058C10.707 14.3979 10.1523 13.8434 10.1445 12.9703C10.1406 12.3214 10.1406 11.6725 10.1445 11.0236C10.1523 10.1623 10.7148 9.5999 11.5703 9.59597C12.4219 9.59203 13.2734 9.59203 14.1289 9.59597C14.9805 9.5999 15.5469 10.1623 15.5508 11.0236C15.5547 11.6725 15.5547 12.3214 15.5508 12.9703C15.5469 13.8355 14.9922 14.394 14.1367 14.4058C13.707 14.4097 13.2773 14.4058 12.8477 14.4058ZM12.8516 13.4147C13.2812 13.4147 13.7109 13.4187 14.1406 13.4147C14.4375 13.4108 14.5742 13.281 14.5742 12.9861C14.5781 12.3332 14.5781 11.6764 14.5742 11.0236C14.5742 10.7208 14.4336 10.5831 14.1289 10.5831C13.2773 10.5792 12.4258 10.5792 11.5742 10.5831C11.2695 10.5831 11.1328 10.7208 11.1289 11.0275C11.125 11.6764 11.125 12.3253 11.1289 12.9703C11.1289 13.2889 11.2617 13.4187 11.582 13.4187C12.0039 13.4187 12.4297 13.4147 12.8516 13.4147Z" fill="#214842"/>
</svg>
